<?xml version="1.0" encoding="utf-8"?>
<!-- Generator: Adobe Illustrator 15.0.0, SVG Export Plug-In . SVG Version: 6.00 Build 0)  -->
<!DOCTYPE svg PUBLIC "-//W3C//DTD SVG 1.1//EN" "http://www.w3.org/Graphics/SVG/1.1/DTD/svg11.dtd">
<svg version="1.1" xmlns="http://www.w3.org/2000/svg" xmlns:xlink="http://www.w3.org/1999/xlink" x="0px" y="0px" width="49.89px"
	 height="57.722px" viewBox="0 0 49.89 57.722" enable-background="new 0 0 49.89 57.722" xml:space="preserve">
<g id="图层_1">
	<g>
		<path fill="#272636" d="M7.083,32.539c1.937,0,3.729-0.006,5.413-0.014c1.583,0.146,2.842-0.229,3.701-1.258l6.788,14.247
			l1.618-8.955l-1.143-0.523l0.037-1.274h4.896l0.037,1.274l-1.146,0.523l1.553,8.572l5.802-13.322c0.87,0.437,2.02,0.555,3.38,0.45
			c1.568-0.006,3.231-0.014,5.017-0.014c4.62,4.373,7.585,14.676,6.855,21.396c-1.427,0.992-3.88,1.813-6.96,2.446l-0.976-3.253
			l-2.139,3.806c-8.996,1.36-21.418,1.453-30.141,0.182l-2.243-3.987L6.41,56.243C3.402,55.595,1.116,54.731,0,53.643
			C0.124,47.743,1.21,37.663,7.083,32.539 M14.587,21.908c-0.777-0.391-1.357-1.075-1.75-2.014c-0.422-1.017-0.616-2.35-0.589-3.932
			l0.006-0.502l0.417-0.28c0.08-0.053,0.159-0.107,0.239-0.153c-0.923-6.695-0.149-9.798,2.765-12.184
			c4.531-3.71,13.136-3.74,17.728-0.376c3.113,2.282,4.23,6.337,3.403,12.42c0.162,0.089,0.321,0.186,0.478,0.293l0.417,0.284
			l0.008,0.498c0.024,1.554-0.161,2.866-0.568,3.872c-0.376,0.932-0.935,1.622-1.684,2.031c-1.198,3.937-5.349,8.156-9.562,8.576
			c-0.738,0.072-1.581,0.058-2.317-0.207C18.987,28.597,16.062,26.693,14.587,21.908"/>
	</g>
</g>
</svg>
