<?xml version="1.0" encoding="utf-8"?>
<!-- Generator: Adobe Illustrator 15.0.0, SVG Export Plug-In . SVG Version: 6.00 Build 0)  -->
<!DOCTYPE svg PUBLIC "-//W3C//DTD SVG 1.1//EN" "http://www.w3.org/Graphics/SVG/1.1/DTD/svg11.dtd">
<svg version="1.1" id="图层_1" xmlns="http://www.w3.org/2000/svg" xmlns:xlink="http://www.w3.org/1999/xlink" x="0px" y="0px"
	 width="50px" height="34.091px" viewBox="0 0 50 34.091" enable-background="new 0 0 50 34.091" xml:space="preserve">
<g>
	<g transform="scale(0.1953125, 0.1953125)">
		<path fill="#272636" d="M244.364,23.272C244.364,0,221.089,0,221.089,0H34.91c0,0-23.272,0-23.272,23.272v116.365h232.727V23.272z
			 M0,162.907c0,11.64,11.3,11.64,11.3,11.64h233.029c0,0,11.67,0,11.67-11.64c0-11.635-11.67-11.635-11.67-11.635H11.3
			C11.3,151.272,0,151.272,0,162.907z M98.91,157.092h46.545c0,0,5.82,0,5.82,5.815c0,5.82-5.82,5.82-5.82,5.82H98.91
			c0,0-5.82,0-5.82-5.82C93.09,157.092,98.91,157.092,98.91,157.092z"/>
	</g>
</g>
</svg>
