<?xml version="1.0" encoding="utf-8"?>
<!-- Generator: Adobe Illustrator 15.0.0, SVG Export Plug-In . SVG Version: 6.00 Build 0)  -->
<!DOCTYPE svg PUBLIC "-//W3C//DTD SVG 1.1//EN" "http://www.w3.org/Graphics/SVG/1.1/DTD/svg11.dtd">
<svg version="1.1" id="图形" xmlns="http://www.w3.org/2000/svg" xmlns:xlink="http://www.w3.org/1999/xlink" x="0px" y="0px"
	 width="1025px" height="1024px" viewBox="0 0 1025 1024" enable-background="new 0 0 1025 1024" xml:space="preserve">
<path fill="red" d="M0,938.666C0,985.812,38.186,1024,85.334,1024h853.334c47.146,0,85.334-38.186,85.334-85.334L1023.999,704
	c0-47.146-38.186-85.334-85.334-85.334h-256v-224c0-29.44-23.894-53.334-53.334-53.334c-29.439,0-53.331,23.894-53.331,53.334v224
	H85.334C38.188,618.666,0,656.852,0,704V938.666L0,938.666z M106.666,821.334C106.666,791.894,130.56,768,160,768
	c29.439,0,53.334,23.894,53.334,53.334S189.44,874.666,160,874.666C130.56,874.666,106.666,850.774,106.666,821.334z
	 M298.665,821.334C298.665,791.894,322.56,768,352,768c29.439,0,53.334,23.894,53.334,53.334S381.44,874.666,352,874.666
	C322.56,874.666,298.666,850.774,298.665,821.334L298.665,821.334z M629.334,170.666c-123.734,0-224,100.268-224,224
	c0,29.44,23.894,53.334,53.334,53.334c29.439,0,53.334-23.894,53.334-53.334c0-64.854,52.479-117.334,117.334-117.334
	c64.854,0,117.334,52.48,117.334,117.334c0,29.44,23.894,53.334,53.334,53.334c29.439,0,53.334-23.894,53.334-53.334
	C853.333,270.934,753.066,170.666,629.334,170.666L629.334,170.666z M629.334,0C411.306,0,234.666,176.64,234.666,394.666
	C234.666,424.106,258.56,448,288,448c29.439,0,53.334-23.894,53.334-53.334c0-159.146,128.852-288,288-288
	c159.147,0,288,128.854,288,288c0,29.44,23.894,53.334,53.334,53.334c29.439,0,53.334-23.894,53.334-53.334
	C1023.999,176.64,847.382,0,629.334,0z"/>
</svg>
