<?xml version="1.0" encoding="utf-8"?>
<!-- Generator: Adobe Illustrator 15.0.0, SVG Export Plug-In . SVG Version: 6.00 Build 0)  -->
<!DOCTYPE svg PUBLIC "-//W3C//DTD SVG 1.1//EN" "http://www.w3.org/Graphics/SVG/1.1/DTD/svg11.dtd">
<svg version="1.1" id="图层_1" xmlns="http://www.w3.org/2000/svg" xmlns:xlink="http://www.w3.org/1999/xlink" x="0px" y="0px"
	 width="50.124px" height="46.837px" viewBox="0 0 50.124 46.837" enable-background="new 0 0 50.124 46.837" xml:space="preserve">
<g>
	<path fill="#272636" d="M0.124,28.36h50v18.477h-50V28.36L0.124,28.36z M0.124,28.36"/>
	<path fill="#272636" d="M0.124,0v10.36h50V0H0.124L0.124,0z M9.146,8.066c-1.601,0-2.899-1.293-2.899-2.887
		s1.298-2.887,2.899-2.887c1.6,0,2.898,1.292,2.898,2.887S10.747,8.066,9.146,8.066L9.146,8.066z M9.146,8.066"/>
	<path fill="#272636" d="M0.124,14.106v10.36h50v-10.36H0.124L0.124,14.106z M9.146,22.37c-1.601,0-2.899-1.293-2.899-2.887
		s1.298-2.887,2.899-2.887c1.6,0,2.898,1.292,2.898,2.887S10.747,22.37,9.146,22.37L9.146,22.37z M9.146,22.37"/>
</g>
</svg>
