<?xml version="1.0" encoding="utf-8"?>
<!DOCTYPE svg PUBLIC "-//W3C//DTD SVG 1.1//EN" "http://www.w3.org/Graphics/SVG/1.1/DTD/svg11.dtd">
<svg style="width:308px;height:308px;" version="1.1" id="图形" xmlns="http://www.w3.org/2000/svg" xmlns:xlink="http://www.w3.org/1999/xlink" x="0px" y="0px" width="1024px" height="1024px" viewBox="0 0 1024 1024" enable-background="new 0 0 1024 1024" xml:space="preserve">
  <path class="svgpath" data-index="path_0" fill="#9d55b8" d="M754.243387 0 269.75559 0c-42.481227 0-76.918939 34.437323-76.918939 76.91681L192.836651 741.009787l0 149.211347 0 133.778866 638.325675 0L831.162326 76.915787C831.162326 34.437323 796.723591 0 754.243387 0zM511.999488 852.590072c-41.258326 0-74.704413-33.44574-74.704413-74.701352s33.446087-74.701352 74.704413-74.701352c41.257303 0 74.704413 33.44574 74.704413 74.701352S553.256791 852.590072 511.999488 852.590072zM750.439602 410.521794l-476.880227 0 0-79.817883 476.880227 0L750.439602 410.521794zM750.439602 259.072477l-476.880227 0 0-79.817883 476.880227 0L750.439602 259.072477z" />

</svg>
