<?xml version="1.0" standalone="no"?>
<!DOCTYPE svg PUBLIC "-//W3C//DTD SVG 1.1//EN" "http://www.w3.org/Graphics/SVG/1.1/DTD/svg11.dtd" >
<svg xmlns="http://www.w3.org/2000/svg">
<metadata>
Created by FontForge 20120731 at Wed Jun  8 10:32:48 2016
 By admin
</metadata>
<defs>
<font id="uplan" horiz-adv-x="1024" >
  <font-face 
    font-family="uplan"
    font-weight="500"
    font-stretch="normal"
    units-per-em="1024"
    panose-1="2 0 6 3 0 0 0 0 0 0"
    ascent="896"
    descent="-128"
    x-height="792"
    bbox="0 -128 1529 896"
    underline-thickness="50"
    underline-position="-100"
    unicode-range="U+0078-E689"
  />
<missing-glyph horiz-adv-x="374" 
d="M34 0v682h272v-682h-272zM68 34h204v614h-204v-614z" />
    <glyph glyph-name=".notdef" horiz-adv-x="374" 
d="M34 0v682h272v-682h-272zM68 34h204v614h-204v-614z" />
    <glyph glyph-name=".null" horiz-adv-x="0" 
 />
    <glyph glyph-name="nonmarkingreturn" horiz-adv-x="341" 
 />
    <glyph glyph-name="x" unicode="x" horiz-adv-x="1001" 
d="M281 543q-27 -1 -53 -1h-83q-18 0 -36.5 -6t-32.5 -18.5t-23 -32t-9 -45.5v-76h912v41q0 16 -0.5 30t-0.5 18q0 13 -5 29t-17 29.5t-31.5 22.5t-49.5 9h-133v-97h-438v97zM955 310v-52q0 -23 0.5 -52t0.5 -58t-10.5 -47.5t-26 -30t-33 -16t-31.5 -4.5q-14 -1 -29.5 -0.5
t-29.5 0.5h-32l-45 128h-439l-44 -128h-29h-34q-20 0 -45 1q-25 0 -41 9.5t-25.5 23t-13.5 29.5t-4 30v167h911zM163 247q-12 0 -21 -8.5t-9 -21.5t9 -21.5t21 -8.5q13 0 22 8.5t9 21.5t-9 21.5t-22 8.5zM316 123q-8 -26 -14 -48q-5 -19 -10.5 -37t-7.5 -25t-3 -15t1 -14.5
t9.5 -10.5t21.5 -4h37h67h81h80h64h36q23 0 34 12t2 38q-5 13 -9.5 30.5t-9.5 34.5q-5 19 -11 39h-368zM336 498v228q0 11 2.5 23t10 21.5t20.5 15.5t34 6h188q31 0 51.5 -14.5t20.5 -52.5v-227h-327z" />
    <glyph glyph-name="uniE600" unicode="&#xe600;" 
d="M384 0v768l-384 -768h384zM320 64h-216l216 433v-433zM640 768v-768h384zM478 896h64v-64h-64v64zM478 192h64v-128h-64v128zM478 448h64v-128h-64v128zM478 704h64v-128h-64v128zM478 -64h64v-64h-64v64z" />
    <glyph glyph-name="uniE601" unicode="&#xe601;" 
d="M213 370zM928 366h-361q-7 0 -13.5 -6.5t-6.5 -14.5v-221q0 -9 6 -15t14 -6h361q8 0 14 6t6 15v221q0 9 -6 15t-14 6zM909 167q0 -11 -7 -18t-17 -7h-275q-10 0 -17 7t-7 18v135q0 11 7 18t17 7h273q10 0 17 -7t7 -18v-135h2zM664 81h167v-25h-167v25zM455 718h-359
q-9 0 -14.5 -6.5t-5.5 -14.5v-221q0 -9 5.5 -14.5t14.5 -5.5h361q9 0 14.5 5.5t5.5 14.5v221q-3 21 -22 21zM436 519q0 -11 -7 -17.5t-17 -6.5h-273q-10 0 -17 6.5t-7 17.5v135q0 11 7 18t17 7h273q10 0 17 -7t7 -18v-135zM193 433h167v-24h-167v24zM727 583h25v-224h-25
v224zM751.5 697q-27.5 0 -46.5 -19.5t-19 -45.5t20 -46t46 -20q27 0 46 19.5t19 46t-19 46t-46.5 19.5zM752 593q-16 0 -27.5 11t-11.5 28t11 28t28 11t28 -11t11 -28t-11 -28t-28 -11zM324 212h223v-25h-223v25zM475 642h223v-25h-223v25zM270 409h25v-170h-25v170z
M270.5 257q-27.5 0 -46.5 -19.5t-19 -46.5q0 -26 19.5 -45.5t45.5 -19.5t46 19.5t20 45.5q0 27 -19 46.5t-46.5 19.5zM270.5 153q-15.5 0 -27.5 11t-12 27q0 17 11 28t28 11t28 -11t11 -28q0 -16 -11.5 -27t-27 -11z" />
    <glyph glyph-name="uniE602" unicode="&#xe602;" 
d="M128 -64h832v-64h-832v64zM704 896v-256h256zM960 448h-832v384q0 26 19 45t45 19h448v-320h320v-128zM960 -64q0 -27 -18.5 -45.5t-45.5 -18.5h-704q-26 0 -45 19t-19 45v64h832v-64zM192 384h128v-64h-128v64zM320 320h64v-64h-64v64zM128 320h64v-64h-64v64zM192 256
h128v-64h-128v64zM128 192h64v-64h-64v64zM320 192h64v-64h-64v64zM192 128h128v-64h-128v64zM832 128v256h-64v-320h192v64h-128zM512 384h128v-64h-128v64zM640 320h64v-192h-64v192zM448 320h64v-192h-64v192zM512 128h128v-64h-128v64z" />
    <glyph glyph-name="uniE603" unicode="&#xe603;" 
d="M213 370zM813 128h96q16 0 27.5 -11t11.5 -28v-96q0 -16 -11 -27.5t-28 -11.5h-96q-16 0 -27.5 11t-11.5 28v39h-18q-40 0 -68.5 28t-28.5 68v154h-96v-193q0 -16 -11 -27.5t-28 -11.5h-403q-16 0 -27.5 11.5t-11.5 27.5v406q0 15 11 27t28 12h192v172h-192q-17 0 -28 11
t-11 27v39q0 16 11 27.5t28 11.5h788q16 0 27.5 -11t11.5 -28v-39q0 -15 -11 -26.5t-28 -11.5h-577v-175h192q16 0 27.5 -11t11.5 -27v-191h96v154q0 40 28.5 68t68.5 28h18v39q0 16 11.5 27.5t27.5 11.5h96q16 0 27.5 -11.5t11.5 -27.5v-96q0 -16 -11 -27.5t-28 -11.5h-96
q-16 0 -27.5 11t-11.5 28v39h-18q-33 0 -55.5 -23t-22.5 -55v-154h96v39q0 16 11.5 27.5t27.5 11.5h96q16 0 27.5 -11t11.5 -28v-96q0 -16 -11 -27.5t-28 -11.5h-96q-16 0 -27.5 11t-11.5 28v37h-96v-154q0 -32 22.5 -55t55.5 -23h18v39q0 17 11.5 28t27.5 11z" />
    <glyph glyph-name="uniE604" unicode="&#xe604;" 
d="M850 405h-63v169q0 35 -25 60t-60 25h-169v63q0 44 -31 75t-74.5 31t-74.5 -31t-31 -75v-63h-169q-35 0 -59.5 -25t-24.5 -60l-1 -160h64q47 0 80.5 -33.5t33.5 -81t-33.5 -81t-80.5 -33.5h-64v-160q0 -35 25 -60t60 -25h160v64q0 47 33.5 80.5t81 33.5t81 -33.5
t33.5 -80.5v-64h160q35 0 60 25t25 60v169h63q44 0 75 31t31 74.5t-31 74.5t-75 31z" />
    <glyph glyph-name="uniE605" unicode="&#xe605;" 
d="M458 -74h-162v593h-215l377 377v-970zM566 842h162v-593h215l-377 -377v970zM566 842z" />
    <glyph glyph-name="uniE606" unicode="&#xe606;" 
d="M924 549q-34 77 -93.5 137t-137.5 94q45 35 101 35q69 0 117 -48.5t48 -116.5q0 -56 -35 -101zM917 367q0 -80 -29 -151.5t-82 -127.5l57 -56q12 -13 12 -30t-12 -29t-29.5 -12t-29.5 12l-61 61q-105 -73 -232 -73t-232 73l-60 -61q-13 -12 -30.5 -12t-29.5 12t-12 29.5
t12 29.5l57 57q-53 55 -82 127t-29 151q0 110 54.5 203.5t148 148t203.5 54.5t203.5 -54.5t148 -148t54.5 -203.5zM510.5 689q-87.5 0 -161.5 -43t-117 -117.5t-43 -162t43 -161.5t117 -117t161.5 -43t162 43t117.5 117t43 161.5t-43 162t-117.5 117.5t-162 43zM679 325
h-168q-17 0 -29.5 12t-12.5 30v224q0 17 12.5 29.5t29.5 12.5t29.5 -12.5t12.5 -29.5v-182h126q17 0 29.5 -12.5t12.5 -30t-12.5 -29.5t-29.5 -12zM99 543q-36 46 -36 104q0 69 49 118.5t119 49.5q58 0 104 -36q-80 -34 -141 -95.5t-95 -140.5z" />
    <glyph glyph-name="uniE607" unicode="&#xe607;" 
d="M84 46l769 769l90 -90l-769 -769z" />
    <glyph glyph-name="uniE608" unicode="&#xe608;" 
d="M936 383q46 -55 1 -105l-327 -328q-10 -8 -22.5 -12t-25 -2.5t-23.5 5.5t-18 11q-118 118 -211 212l-78 79q-39 38 -69 68.5t-49 49.5l-20 20q-2 2 -6.5 9t-10 18t-9.5 24.5t-4 29.5v19v37q1 23 1 48q1 27 1 54q1 64 2 142q2 13 4.5 25.5t13.5 24.5q10 10 23.5 14t23.5 4
h320q2 1 15 0.5t16 -2.5q6 -3 14 -8t13 -10zM217 615q28 0 47 19t19 46.5t-19 46t-46.5 18.5t-47 -18.5t-19.5 -46t19.5 -46.5t46.5 -19z" />
    <glyph glyph-name="uniE609" unicode="&#xe609;" 
d="M955 378l-444 -330v659zM511 378l-444 -330v659z" />
    <glyph glyph-name="uniE60A" unicode="&#xe60a;" 
d="M512 760l-438 -353l438 -344v697zM950 760l-438 -353l438 -344v697z" />
    <glyph glyph-name="uniE60B" unicode="&#xe60b;" 
d="M512 877q-100 0 -191.5 -39t-157.5 -105t-105 -157.5t-39 -191.5t39 -191.5t105 -157.5t157.5 -105t191.5 -39t191.5 39t157.5 105t105 157.5t39 191.5t-39 191.5t-105 157.5t-157.5 105t-191.5 39zM718 435v-71h-162v-98h162v-71h-162v-141h-88v141h-167v71h167v98h-167
v71h141l-172 279h101l120 -209q10 -20 23 -53h1q9 26 24 56l120 206h95l-174 -279h138z" />
    <glyph glyph-name="uniE60C" unicode="&#xe60c;" 
d="M512 832q-91 0 -174 -35.5t-142.5 -95.5t-95 -143t-35.5 -174t35.5 -174t95 -143t142.5 -95.5t174 -35.5t174 35.5t143 95.5t95.5 143t35.5 174t-35.5 174t-95.5 143t-143 95.5t-174 35.5zM770 135q-22 -32 -95 -32h-57q-62 0 -83 20q-20 20 -20 79v160q0 9 -10 9l-48 -3
q-9 0 -9 -9q0 -100 -29 -153q-28 -52 -84 -83q-55 -31 -77 -31q-18 0 -28.5 12.5t-10.5 26.5q0 27 31 37q32 11 55 27t38 38t22 50.5t7 65.5q0 9 -1.5 11.5t-8.5 2.5l-27 -1q-28 -2 -47 3.5t-26.5 16.5t-3.5 27t21 35l57 62q22 24 22 26t-3 2h-101q-15 0 -25.5 10.5
t-10.5 25.5q0 16 10.5 26.5t26.5 10.5h204q4 0 4 3v3q-14 30 -14 39q0 7 4 13.5t10.5 11.5t14.5 7.5t16 2.5q23 0 33 -17q12 -18 30 -58q2 -5 8 -5h184q16 0 26.5 -10.5t10.5 -26.5q0 -15 -10 -25.5t-27 -10.5h-291q-3 0 -9 -5l-34 -37q-14 -16 -23.5 -26.5t-14.5 -14.5
q-9 -10 -9 -15.5t13 -5.5l232 11q8 1 8 4.5t-14 17.5q-16 18 -16 30t12 23q13 11 25 11t22 -6q11 -5 42 -43q32 -40 42 -55q11 -16 22.5 -32.5t11.5 -31.5t-15 -27q-7 -6 -14.5 -9t-15 -2t-15.5 6.5t-16 18.5l-14 21q-5 10 -7 11t-5 1l-70 -3q-5 0 -5 -8v-163q0 -15 7 -21.5
t24 -6.5h49q26 0 36.5 16.5t10.5 55.5q0 35 34 35q40 0 40 -38q0 -79 -22 -111z" />
    <glyph glyph-name="uniE60D" unicode="&#xe60d;" 
d="M889 817h-754q-23 0 -39.5 -16.5t-16.5 -39.5v-528q0 -23 16.5 -39.5t39.5 -16.5h754q23 0 39.5 16.5t16.5 39.5v528q0 23 -16.5 39.5t-39.5 16.5zM889 252q0 -8 -5.5 -13.5t-13.5 -5.5h-716q-8 0 -13.5 5.5t-5.5 13.5v490q0 8 5.5 13.5t13.5 5.5h716q8 0 13.5 -5.5
t5.5 -13.5v-490zM201 692h311v-35h-311v35zM663 83q0 7 -5.5 13t-13.5 6h-264q-8 0 -13.5 -6t-5.5 -13v-76h-188v-56h678v56h-188v76zM201 614h219v-30h-219v30zM534 361l-130 160l-34 -27v-1l-169 -133l27 -34l170 133l129 -159v1l273 214l-27 34zM534 361z" />
    <glyph glyph-name="uniE60E" unicode="&#xe60e;" 
d="M522.5 832q-93.5 0 -178.5 -36t-146.5 -97.5t-98 -147t-36.5 -178.5t36.5 -178t98 -146.5t146.5 -98t178.5 -36.5t178.5 36.5t146.5 98t97.5 146.5t36 178t-36 178.5t-97.5 147t-146.5 97.5t-178.5 36zM376 453h-52v69h-68v-260h68v73h52v-86q0 -33 -32 -33h-109
q-32 0 -32 33v286q0 32 32 32h109q32 0 32 -32v-82zM542 217l-58 163v31h52v111h-66v-305h-53v350h140q31 0 31 -32v-127q0 -23 -15 -29q-8 -4 -34 -4l58 -159h-55v1zM841 217h-50v173q0 13 3 38l-45 -179h-27l-46 179q3 -25 3 -38v-173h-50v350h50l55 -194q1 -3 1 -15
q0 5 1 15l56 194h49v-350z" />
    <glyph glyph-name="uniE60F" unicode="&#xe60f;" 
d="M235.5 339q29.5 -11 58.5 2t40 43q21 55 70 88.5t108 33.5t108 -33.5t70 -88.5q8 -23 28 -36.5t43 -13.5q14 0 27 5q30 11 43 40t2 59q-37 98 -124 159q-88 63 -197 63t-197 -63q-87 -60 -124 -159q-11 -30 2 -59t42.5 -40zM227 424q24 65 75 113.5t117 69.5
q15 5 29 -2.5t19 -22.5t-2 -29t-23 -19q-49 -16 -87 -52t-56 -85q-10 -25 -36 -25q-7 0 -14 3q-15 6 -21.5 20.5t-0.5 28.5zM545 332q3 -7 3 -15q0 -15 -10.5 -26t-25.5 -11t-25.5 11t-10.5 26v144q0 5 5 6.5t7 -3.5zM892 838h-760q-30 0 -52 -22t-22 -53v-758q0 -31 22 -53
t52 -22h760q30 0 52 22t22 53v758q0 31 -22 53t-52 22zM444.5 14q-17.5 0 -30 12.5t-12.5 30t12.5 30t30 12.5t30 -12.5t12.5 -30t-12.5 -30t-30 -12.5zM579.5 14q-17.5 0 -30 12.5t-12.5 30t12.5 30t30 12.5t30 -12.5t12.5 -30t-12.5 -30t-30 -12.5zM890 182h-756v579h756
v-579z" />
    <glyph glyph-name="uniE610" unicode="&#xe610;" 
d="M869 360q-46 1 -96 -3q-43 -3 -97.5 -10t-111.5 -22l147 -243q10 -19 11.5 -39t-4.5 -38.5t-18.5 -34t-31.5 -25.5q-18 -10 -38 -11.5t-38.5 4.5t-34 18.5t-25.5 31.5l-123 273q-50 -29 -90.5 -62t-69.5 -62q-34 -33 -60 -67l-2 816z" />
    <glyph glyph-name="uniE611" unicode="&#xe611;" 
d="M888 828h-755q-28 0 -48 -20t-20 -48v-755q0 -28 20 -48t48 -20h755q28 0 48 20t20 48v755q0 28 -20 48t-48 20zM888 5h-755v755h755v-755zM219 177h86v-86q0 -7 5 -12t12 -5h34q7 0 12 5t5 12v86h103v-86q0 -7 5 -12t12 -5h35q7 0 12 5t5 12v86h103v-86q0 -7 5 -12
t12 -5h34q7 0 12 5t5 12v86h86q7 0 12 5t5 12v34q0 7 -5 12t-12 5h-86v103h86q7 0 12 5t5 12v35q0 7 -5 12t-12 5h-86v103h86q7 0 12 5t5 12v34q0 7 -5 12t-12 5h-86v86q0 7 -5 12t-12 5h-34q-7 0 -12 -5t-5 -12v-86h-103v86q0 7 -5 12t-12 5h-35q-7 0 -12 -5t-5 -12v-86
h-103v86q0 7 -5 12t-12 5h-34q-7 0 -12 -5t-5 -12v-86h-86q-7 0 -12 -5t-5 -12v-34q0 -7 5 -12t12 -5h86v-103h-86q-7 0 -12 -5t-5 -12v-35q0 -7 5 -12t12 -5h86v-103h-86q-7 0 -12 -5t-5 -12v-34q0 -7 5 -12t12 -5zM545 520h103v-103h-103v103zM545 348h103v-103h-103v103z
M373 520h103v-103h-103v103zM373 348h103v-103h-103v103z" />
    <glyph glyph-name="uniE612" unicode="&#xe612;" 
d="M783 416q-100 0 -170.5 70t-70.5 169.5t70.5 170t170.5 70.5t170.5 -70.5t70.5 -170t-70.5 -169.5t-170.5 -70zM392 -128h-301q-38 0 -64.5 26.5t-26.5 63.5v300q0 37 26.5 63.5t64.5 26.5h301q37 0 63.5 -26.5t26.5 -63.5v-300q0 -37 -26.5 -63.5t-63.5 -26.5zM392 416
h-301q-38 0 -64.5 26.5t-26.5 63.5v300q0 37 26.5 63.5t64.5 26.5h301q37 0 63.5 -26.5t26.5 -63.5v-300q0 -37 -26.5 -63.5t-63.5 -26.5zM632 352h301q38 0 64.5 -26.5t26.5 -63.5v-300q0 -37 -26.5 -63.5t-64.5 -26.5h-301q-37 0 -63.5 26.5t-26.5 63.5v300
q0 37 26.5 63.5t63.5 26.5z" />
    <glyph glyph-name="uniE613" unicode="&#xe613;" 
d="M746 656q40 -29 71 -64.5t53 -77.5t33.5 -88.5t11.5 -94.5q0 -82 -31.5 -154.5t-85 -126t-125.5 -85t-155 -31.5q-81 0 -153.5 31.5t-126.5 85t-85 126t-31 154.5q0 47 11 92.5t31.5 86t50.5 76t67 64.5q20 14 42.5 10.5t36.5 -22.5t10.5 -42t-21.5 -37q-56 -41 -86 -100
t-30 -128q0 -58 22.5 -110t61 -90.5t90.5 -61t110.5 -22.5t110 22.5t90.5 61t61.5 90.5t22.5 110q0 69 -32 131t-90 102q-19 13 -23 36t9 42t36.5 23t42.5 -9zM518 329q-23 0 -39.5 16t-16.5 39v337q0 23 16.5 40t39.5 17q24 0 40.5 -17t16.5 -40v-337q0 -23 -16.5 -39
t-40.5 -16z" />
    <glyph glyph-name="uniE614" unicode="&#xe614;" 
d="M707 33h-350v30q23 8 47 14q22 6 51 11v611h-133l-55 -147h-27q-3 20 -5 47q-2 23 -4 53q-1 25 -2 54q-1 26 -1 46h608q0 -19 -1 -45.5t-2 -53.5q-1 -5 -2 -24t-2 -29q-1 -27 -4 -48h-28l-55 147h-132v-611q30 -6 51 -11q24 -5 46 -14v-30v0zM707 33z" />
    <glyph glyph-name="uniE615" unicode="&#xe615;" 
d="M521 832v-299h298zM484 496v336h-299v-895h653v559h-354z" />
    <glyph glyph-name="uniE616" unicode="&#xe616;" 
d="M901 349q-22 22 -50.5 23t-50.5 -20l-83 -84q-16 -16 -34 -16.5t-29 13.5q-11 12 -4 72l42 343q3 24 -11.5 43t-37.5 21.5t-41 -12.5t-21 -38l-46 -270q-2 -5 -5 -5t-3 6l-16 351q0 23 -16.5 39.5t-39.5 16.5t-39.5 -16.5t-16.5 -39.5l-1 -353q0 -3 -2 -4q-1 2 -2 3
l-50 276q-4 23 -23 37t-42 10t-36 -24t-9 -43l44 -323q0 -5 -1 -6t-4 4l-66 177q-8 23 -29 33.5t-42.5 2.5t-31.5 -29.5t-2 -43.5l116 -379q1 -3 2 -7v-1q24 -75 89 -122.5t146 -47.5q111 0 199 67q26 16 89 77t113 113t50 53q21 22 19.5 51.5t-24.5 51.5zM901 349z" />
    <glyph glyph-name="uniE617" unicode="&#xe617;" 
d="M441 830q62 0 118.5 -46.5t76.5 -115.5q19 -61 -2.5 -119.5t-78.5 -104.5q-103 -80 -217 -13q-69 41 -93 112t3.5 143t98.5 115q39 24 94 29zM356 19q-79 9 -228 27h-3q-48 10 -55.5 22t7.5 58q35 105 41 124q35 97 140 102q49 3 233 1q20 0 24.5 -8t-4.5 -26
q-5 -10 -10 -18q-69 -112 -39 -235q7 -26 0.5 -34t-33.5 -8h-54h-18v-3q-1 -1 -1 -2zM499 209q37 10 40 10q30 7 11 31q-2 2 -27 31q29 39 33 44q5 7 33 45q37 -27 39 -29q30 -21 44 12q1 2 14 41q66 0 78 -1q4 0 9 -6t7 -12q15 -41 24.5 -44t44.5 24q0 1 20 15q4 -6 67 -91
q-25 -20 -26 -21q-17 -17 -14.5 -25.5t24.5 -13.5q2 -1 37 -10v-88q-39 -11 -42 -12q-36 -14 -8 -39q2 -2 25 -21q-13 -13 -43 -41.5t-46 -44.5q-24 21 -26 23q-14 12 -25 7.5t-14 -22.5q-1 -3 -3 -18q0 -1 -3 -17h-88q-7 37 -8 39q-8 30 -34 15q-4 -2 -51 -30
q-56 71 -69 88q25 22 26 23q27 26 -9 38q-2 1 -40 12v88zM842 167q0 48 -34 81.5t-81.5 33t-81 -34.5t-33 -82t34.5 -81.5t82 -33t81 34t32 82.5z" />
    <glyph glyph-name="uniE618" unicode="&#xe618;" 
d="M918 776h-812q-17 0 -29.5 -12.5t-12.5 -29.5v-700q0 -17 12.5 -29.5t29.5 -12.5h812q17 0 29.5 12.5t12.5 29.5v700q0 17 -12.5 29.5t-29.5 12.5zM918 608v-164h-243v164h243zM391 239v163h242v-163h-242zM633 197v-163h-242v163h242zM349 239h-243v163h243v-163z
M633 608v-164h-242v164h242zM675 402h243v-163h-243v163zM400 734q17 0 29.5 -12.5t12.5 -29.5t-12.5 -29.5t-29.5 -12.5t-29.5 12.5t-12.5 29.5t12.5 29.5t29.5 12.5zM274 734q17 0 29.5 -12.5t12.5 -29.5t-12.5 -29.5t-29.5 -12.5t-29.5 12.5t-12.5 29.5t12.5 29.5
t29.5 12.5zM148 734q17 0 29.5 -12.5t12.5 -29.5t-12.5 -29.5t-29.5 -12.5t-29.5 12.5t-12.5 29.5t12.5 29.5t29.5 12.5zM148 608h201v-164h-243v164h42zM106 197h243v-163h-243v163zM675 34v163h243v-163h-243z" />
    <glyph glyph-name="uniE619" unicode="&#xe619;" 
d="M512 896q-139 0 -257 -68.5t-186.5 -186.5t-68.5 -257t68.5 -257t186.5 -186.5t257 -68.5t257 68.5t186.5 186.5t68.5 257t-68.5 257t-186.5 186.5t-257 68.5zM512 -32q-172 0 -294 122t-122 294t122 294t294 122t294 -122t122 -294t-122 -294t-294 -122zM448 640h128
v-128h-128v128zM640 128h-256v64h64v192h-64v64h192v-256h64v-64z" />
    <glyph glyph-name="uniE61A" unicode="&#xe61a;" 
d="M82 360q-14 0 -21 12q-5 9 -2.5 18.5t11.5 13.5l91 53q6 4 15 3q-14 29 -17 63q-7 -5 -15 -5h-105q-9 0 -16 7t-7 16.5t7 16.5t16 7h105q8 0 15 -6q4 36 17 65h-2l-1 -1q-7 0 -12 3l-91 53q-9 5 -11.5 14t2.5 17.5t14.5 11t17.5 -1.5l91 -53q7 -4 10 -12q20 28 47 47
q-8 3 -12 10l-53 91q-4 8 -1.5 17.5t11 14.5t18 2.5t13.5 -11.5l53 -91q4 -6 2 -15q30 13 65 17q-6 7 -6 15v105q0 9 7 16t16.5 7t16.5 -7t7 -16v-105q0 -8 -5 -15q33 -3 63 -17q-1 9 3 15l53 91q4 9 13.5 11.5t18 -2.5t11 -14.5t-2.5 -17.5l-52 -91q-4 -7 -12 -10
q27 -19 47 -47q3 8 10 12l91 53q8 4 17.5 1.5t14.5 -11t2.5 -17.5t-11.5 -14l-91 -53q-5 -3 -12 -3q-11 0 -18 10l-60 -34q-16 28 -44 44.5t-60 16.5q-48 0 -83 -35t-35 -83q0 -37 21 -67l-61 -42q-2 -11 -12 -17l-91 -52q-5 -4 -11 -4zM1024 226q0 -81 -57.5 -138.5
t-139.5 -57.5h-591q-65 0 -111 46t-46 111q0 66 47.5 112.5t113.5 45.5q14 68 68 112.5t125 44.5q16 0 31 -2q31 55 86.5 87.5t119.5 32.5q91 0 158.5 -61.5t76.5 -151.5q54 -23 86.5 -72t32.5 -109zM945 226q0 41 -25 72.5t-64 41.5l-30 8l1 39q0 63 -46.5 109t-110.5 46
q-49 0 -89.5 -28.5t-57.5 -74.5l-14 -36l-36 13q-21 7 -40 7q-49 0 -83.5 -34.5t-34.5 -83.5l1 -5l3 -60l-56 21q-14 5 -27 5q-32 0 -55 -23t-23 -56t23 -56t55 -23h591q49 0 83.5 35t34.5 83z" />
    <glyph glyph-name="uniE61B" unicode="&#xe61b;" 
d="M800 -32h-576q-40 0 -68 28t-28 68v640q0 40 28 68t68 28h576q40 0 68 -28t28 -68v-640q0 -40 -28 -68t-68 -28zM224 736q-13 0 -22.5 -9.5t-9.5 -22.5v-640q0 -13 9.5 -22.5t22.5 -9.5h576q13 0 22.5 9.5t9.5 22.5v640q0 13 -9.5 22.5t-22.5 9.5h-576zM641 351h-353
q-13 0 -22.5 9.5t-9.5 22.5t9.5 22.5t22.5 9.5h353q13 0 22.5 -9.5t9.5 -22.5t-9.5 -22.5t-22.5 -9.5zM735 160h-447q-14 0 -23 9.5t-9 23t9 22.5t23 9h447q13 0 22.5 -9t9.5 -22.5t-9.5 -23t-22.5 -9.5zM256 591q0 -20 14 -34t34 -14t34 14t14 34t-14 34t-34 14t-34 -14
t-14 -34zM463 591q0 -20 14 -34t34 -14t34 14t14 34t-14 34t-34 14t-34 -14t-14 -34zM671 591q0 -20 14 -34t34 -14t34 14t14 34t-14 34t-34 14t-34 -14t-14 -34z" />
    <glyph glyph-name="uniE61C" unicode="&#xe61c;" 
d="M215 684h-46q-17 0 -29 -12t-12 -29v-46q0 -17 12 -29t29 -12h46q17 0 29 12t12 29v46q0 17 -12 29t-29 12zM855 684h-430q-17 0 -29 -12t-12 -29v-46q0 -17 12 -29t29 -12h430q16 0 28 12t12 29v46q0 17 -12 29t-28 12zM215 448h-46q-17 0 -29 -12t-12 -29v-46
q0 -17 12 -29t29 -12h46q17 0 29 12t12 29v46q0 17 -12 29t-29 12zM855 448h-430q-17 0 -29 -12t-12 -29v-46q0 -17 12 -29t29 -12h430q16 0 28 12t12 29v46q0 17 -12 29t-28 12zM215 213h-46q-17 0 -29 -12t-12 -29v-46q0 -17 12 -29t29 -12h46q17 0 29 12t12 29v46
q0 17 -12 29t-29 12zM855 213h-430q-17 0 -29 -12t-12 -29v-46q0 -17 12 -29t29 -12h430q16 0 28 12t12 29v46q0 17 -12 29t-28 12z" />
    <glyph glyph-name="uniE61D" unicode="&#xe61d;" 
d="M512 555q-70 0 -120.5 -50.5t-50.5 -120.5t50.5 -120.5t120.5 -50.5t120.5 50.5t50.5 120.5t-50.5 120.5t-120.5 50.5zM580 314q-7 -14 -15 -20q-4 -4 -21 -12q-17 -5 -23 -5v-21h-18v19q-8 0 -25 4q-4 1 -21 13q-9 9 -15 22q-5 8 -5 27h32q0 -21 9 -30q11 -10 25 -10v70
q-8 2 -21 9q-8 2 -21 10q-7 5 -15 17q-7 10 -7 28q0 11 5 24q3 9 15 17t21 10q17 5 21 5v21h17v-19q9 0 22 -4q11 -3 19 -11q9 -6 13 -17q4 -7 4 -26h-32q0 15 -8.5 23.5t-19.5 8.5v-62q13 -3 24 -8q11 -3 21 -13q11 -11 15 -17q6 -10 6 -26q7 -15 -2 -27zM277 555h-42
q-10 0 -16 -6t-6 -15.5t6 -15.5t16 -6h42q10 0 16 6t6 15.5t-6 15.5t-16 6zM939 640h-854q-17 0 -29.5 -12.5t-12.5 -30.5v-426q0 -18 12.5 -30.5t29.5 -12.5h854q17 0 29.5 12.5t12.5 30.5v426q0 18 -12.5 30.5t-29.5 12.5zM106.5 597q9.5 0 15.5 -5.5t6 -15.5t-6 -15.5
t-15.5 -5.5t-15.5 5.5t-6 15.5t6 15.5t15.5 5.5zM106.5 171q-9.5 0 -15.5 5.5t-6 15.5t6 15.5t15.5 5.5t15.5 -5.5t6 -15.5t-6 -15.5t-15.5 -5.5zM917.5 171q-9.5 0 -15.5 5.5t-6 15.5t6 15.5t15.5 5.5t15.5 -5.5t6 -15.5t-6 -15.5t-15.5 -5.5zM939 252q-13 4 -22 4
q-27 0 -45.5 -18.5t-18.5 -45.5q0 -9 5 -21h-692q5 12 5 21q0 27 -18.5 45.5t-45.5 18.5q-9 0 -22 -4v264q13 -4 22 -4q27 0 45.5 18.5t18.5 45.5q0 9 -5 21h692q-5 -12 -5 -21q0 -27 18.5 -45.5t45.5 -18.5q9 0 22 4v-264zM917.5 555q-9.5 0 -15.5 5.5t-6 15.5t6 15.5
t15.5 5.5t15.5 -5.5t6 -15.5t-6 -15.5t-15.5 -5.5zM474 437q0 -8 2 -12.5t6 -8.5q2 -2 10 -6l9 -5v58q-11 0 -21 -6q-6 0 -6 -20zM789 256h-42q-10 0 -16 -6t-6 -15.5t6 -15.5t16 -6h42q10 0 16 6t6 15.5t-6 15.5t-16 6zM542 358q-2 1 -5.5 3.5t-5.5 3.5t-5 2t-5 2v-68
q10 0 23 8q11 7 11 26q0 11 -2 13q-6 8 -11 10z" />
    <glyph glyph-name="uniE61E" unicode="&#xe61e;" horiz-adv-x="1000" 
d="M417 729l-312 -313q-18 -18 -18 -44t18 -44l312 -313q19 -18 44.5 -18t44 18.5t18.5 44t-18 44.5l-206 206h599q26 0 44.5 18t18.5 44t-18.5 44.5t-44.5 18.5h-599l206 205q18 19 18 44.5t-18.5 44t-44 18.5t-44.5 -18z" />
    <glyph glyph-name="uniE61F" unicode="&#xe61f;" 
d="M819 406h-600l93 -132h411zM867 472l104 143l4 6l2 3q6 13 0.5 25.5t-17.5 17.5q-7 3 -14 3h-853q-13 0 -22.5 -10t-9.5 -23q0 -15 12 -25l99 -140h695zM358 207l124 -174q2 -6 6 -10q6 -8 14 -11q13 -6 25.5 -0.5t18.5 17.5l129 178h-317zM358 207z" />
    <glyph glyph-name="uniE620" unicode="&#xe620;" 
d="M638 783q0 1 1 2q1 2 4 2h5q1 1 3 1h2h1l2 1h1l5 1h2h1q5 -2 7 -3q4 -6 3 -8q4 -2 5 -3q3 -2 2 -4q-1 -3 -4 -3h-4q1 -2 0 -3.5t-3 -1.5h-1h-1q-11 3 -12 5l-2 3q-2 0 -4 1l-5 3h-1q-7 4 -7 7zM738 239q10 0 13 9q1 5 -2 9t-8 4h-2q-9 -1 -11 -9q-1 -7 4 -11q3 -2 6 -2z
M589 699q1 0 22 9q3 2 2 5q0 1 -1 4q-1 1 -1 2l-1 1l-8 6q-2 1 -5 1l-15 -2l-4 2h-2q-1 0 -11 -2q-2 -1 -3 -3q-1 -3 1 -5q2 -1 5 -3l-1 -3q-1 -2 0 -4t20 -8h2zM1018 384q0 -103 -40 -196.5t-108 -161.5t-161.5 -108t-196.5 -40t-196.5 40t-161.5 108t-108 161.5t-40 196.5
t40 196.5t108 161.5t161.5 108t196.5 40t196.5 -40t161.5 -108t108 -161.5t40 -196.5zM777 514q0 -1 -1 -2l6 -3l18 -4h1h1l17 -10l1 7q0 1 2 2l4 3h2h13l2 -2l1 -2h7h1l15 -6l3 4q1 3 4 2l10 -3l1 15l-1 5l-2 -2l-2 -2h-3q-1 0 -1 1q-6 3 -7 3q-2 3 -2 6q1 1 1 2
q-1 0 -2 -1l-7 -2q-2 0 -4 1l-1 2q0 -10 -4 -11h-1q-16 3 -17 6q-3 4 -3 5v1h-4q-1 0 -2 1l-1 1q-1 0 -1 1l-2 3q0 1 -1 3t-2 3h-1q-2 1 -3 2l-5 6q-1 0 -2 1h-1v1l-1 1l-1 2q-1 -1 -2 -1h-1l1 -1q1 -2 0 -4l-4 -8q0 -1 -2 -2v-6q0 -4 -3 -5q1 -1 1 -2t-1 -2v-2q-5 -6 -7 -7
h-1l1 4l-1 -4q-3 1 -4 3t-2 3q-1 3 -2 5q1 -7 2 -11zM709 547q0 -2 -1 -4q-2 -1 -4 -3l-1 -2l-8 -7h-1l-1 -1h-1l-8 -1v-1h-1h9l23 8q1 0 1 1l36 2l6 2h2q2 0 3 -1l6 -3l4 -3q1 -1 1 -2l1 -5q0 4 4 5h1q-1 0 -1 0.5t-1 0.5q-8 5 -11 8v2q-1 3 -1 4q-1 3 2 4q2 1 4 1l9 -1
l-1 3l-2 1l-14 8q-1 0 -1 1l-7 7l-1 -1v-2q0 -1 -1 -1q3 -1 4 -4q3 -8 3 -9q0 -4 -4 -5l-5 -2h-1h-2q-4 1 -5 4q0 1 -0.5 3.5t-1.5 4.5v2v3q-1 0 -1 1t-1 1q0 4 -1 5q0 2 1 3v2q1 0 1 1h-1l-5 -4q-1 -1 -3 -1l-11 2v-1l-1 -7q0 -2 -2 -3l-5 -2q0 -1 -1 -1h-1h-1l-4 -1v-2z
M746 663q0 -3 -3 -4h-1q-1 0 -2 -1h2l1 1l10 3q0 1 1 1h2q7 2 10 1l-3 8v3l-1 1q-1 0 -1 1q-2 3 -3 5q-1 0 -2 1l-7 3v-1l-2 -10l-2 -3zM927 393l1 -5v-1v-1l2 -15q2 -1 2 -2l1 10q-3 6 -6 14zM839 538q0 -2 -1 -3l-2 -1h2q3 0 7 -1l-4 9l-2 2q-1 1 -2 1l1 -1q1 0 1 -1v-5z
M847 574q1 0 7 2q6 3 9 3q1 1 2 1t7 -4l6 1l-6 4l-12 9q-1 0 -1 1q-2 -2 -2.5 -3t-1.5 -2h-2q-2 0 -10 7l-1 1l-1 -5v-2q0 -2 -1 -3v-2v-3l5 -5h2zM882 151h-1q-2 1 -3 1l-8 -14v1l8 4q4 6 6 8h-1h-1zM936 260l-1 -1l-4 -2l-14 -22q-1 0 -2 -1l-3 -4l-5 -8q-1 -4 -3 -9
q0 -1 -1 -1l-2 -2l-5 -9l-1 -5l-6 -16v-2q0 -1 -1 -2l-1 -3q-1 -2 -1.5 -3.5t-1.5 -2.5h1h1h4l1 -1q3 -1 2 -4l2 2q26 46 41 96zM952 344v3v3l-7 -6l-1 -1h-1v-1v-3q0 -1 1 -1q1 1 6 4zM324 716v1h-6q0 -2 -2 -2v-1q-1 -1 -2 -1l-11 -4l-14 -6l-13 -9v-2q0 -2 -1 -3h-1
q2 -1 3 -3l3 -10l5 -8h1v2l2 2l19 6l9 15q1 1 2 1l8 3q2 2 5 6q4 6 7 9h-1l-2 -1q-1 -1 -2 -1q-4 0 -6 1q-3 1 -3 5zM412 -46l-1 1l-2 1l-1 1l-2 1v0h-1h-2l-4 2q-1 1 -3 1q0 1 -1 2q-2 1 -2 3h-2q-5 2 -7 4q-1 0 -1 1l-1 1l-5 2l-2 2l-2 3q-2 0 -4 2q-7 5 -7 6q-4 1 -5 2
h-1l-2 2l-3 3l-8 6v1q-29 28 -58 64q-10 14 -30 46l-3 2q-9 5 -11 6v1l-22 11q-6 4 -31 38q-1 0 -1 1q-1 0 -1 1l-8 11l-15 13q0 1 -1 1l-8 18v2v2l1 1q-1 0 -2 2q-1 0 -1 1v1q-2 7 -4 11v1v2l3 15l3 8l1 7l-6 32l-2 3q0 -1 -2 -2l-5 -2q-3 -1 -5 1l-5 8h-1l-2 1l-2 2v1
l-4 4l-1 -1q-2 -1 -4 1l-2 3l-1 1l-10 29v1l-6 3q0 1 -1 2h-1l-5 5l-3 4q0 1 -1 1v1l-4 10l-5 -3q-3 -1 -5 1l-2 2q4 -153 100 -270t242 -151zM124 419l1 2q-1 0 -2 1l-10 -28v-8l9 -2l1 -1q1 -1 2 -1l1 -1q5 -7 7 -10q1 -1 1 -2t-1 -3l-1 -33l4 -7l11 2h1h1q1 0 2 -1l5 -3
l6 13v1q1 1 2 1l18 10q2 1 3 0q1 0 2 -0.5t2 -1.5l2 -1l3 3q2 2 4 1l1 -1q1 0 1 -1l9 -11l15 -4l3 2h1h1h2l14 -3q1 0 1 -1l8 -6v2v1q-4 0 -5 4v2v5q0 2 1 3v4q-2 2 -3 4v6q0 2 1 3v3q-3 1 -4 4v3v8q0 1 1 2q-3 2 -3 5v1l-3 -1h-2q-1 0 -3 1l-2 2l-1 1q-1 -1 -4 -2h-12
q-3 1 -4 3h-1h-18h-1h-1v0h-1q-16 3 -18 4v-3q0 -3 -2 -4q0 -1 -1 -1l-6 -2q-1 -1 -2 -1h-1h-1q-1 0 -1 1l-3 1q-4 3 -7 5q-1 1 -1.5 3t1.5 4q4 5 5 6q1 0 2 -1h4q7 -1 10 -2l2 -2q0 3 1 4v1v1l-12 -2h-2l-1 1q-3 1 -3 4v3v3l-2 2q1 -3 1 -6q-1 -11 -11 -11q-2 0 -5 1
q-5 4 -4 12h-2v-1q-1 0 -3 1t-3 3q-1 5 0 6zM828 76q-2 1 -2 3q1 4 2 5q12 19 13 20l10 9l6 9q0 1 1 2q2 2 2 3q-1 -1 -2 -1h-1q-9 -7 -15 -11v-1l-3 -2q-3 -3 -5 -4h-2h-1l-1 -2l-7 -14q0 -1 -1 -1l-12 -13q-3 -3 -5 -4h-2h-2l-3 -2l-4 -4l-11 -11q-1 -2 -9 -7h-1v-1
l-20 -14h-1l-13 -6q-10 -2 -22 -5h-1q-4 -2 -5 -3h-1q-4 0 -6 1t-2.5 2.5t0.5 2.5l1 3q3 7 6 9l4 4l5 10l3 9l1 3v1q7 20 14 46l-2 10q-1 1 -1 2t1 2q4 10 6 14q0 1 1 1l2 2l2 1l5 10l8 8l5 27l2 7l-1 3v2v1q-1 0 -1 1q-1 1 -1 2v1v4l-2 5l-9 23q-1 2 0 3l11 23l-1 2l-6 8
l-14 -1q-2 -1 -4 2l-4 12l-5 -1h-8l-7 -4q0 -1 -1 -1h-2h-2l-17 -2h-1h-20l-13 -3q-5 -2 -8 -2h-1q-1 1 -2 1l-6 5l-17 10q-1 1 -2 1l-1 1v0l-2 2l-1 1l-6 7l-7 6q-1 0 -1 1l-12 17l-6 7l-4 5v3v1q-1 1 0 2v7l-5 5q-2 2 -1 4l12 23l-3 20l-2 3q-1 1 -1 2v1v5v2l9 20
q1 2 3.5 5.5t2.5 4.5q10 16 13 23q1 2 2 2l8 4l17 12l4 16v1q1 1 1 2l24 20l-3 4l-7 -2q-5 -1 -7 4l-3 10l-3 2q-1 1 -1 2v2v2l3 14q-2 11 -3 17q0 2 1 3l1 1q1 1 3 2h2v1l1 1q1 2 3 2l1 1h2q5 -1 7 -2q15 -2 19 -2l-1 4v1v1v3l-7 6q-3 0 -7 1q-1 0 -2 1q-2 1 -2 3
q-1 2 -1 4q-1 1 -1 2l1 1l1 4h-4q-3 1 -4.5 3t-0.5 4l2 5q0 1 1 1v1l2 1l-1 1v1h-1l-9 -5h-1l-11 -2q-3 -1 -5 2q-2 1 -1 4l1 7q1 1 1 2q-2 1 -3 2l-1 5q0 2 1 4q4 4 6 4h1v1h1q1 1 2 1h1l2 2h2h2q0 1 -0.5 2t-0.5 2v1q2 12 3 14t4 2h6q3 0 5 -3v-2q8 -3 9 -5v-1l1 -2v-1v-5
q22 -20 22 -22v-2v-3l1 2v1h1q0 1 1 2l2 2q1 1 2 1l3 4q1 1 2 1l6 2v2l-4 4q-1 1 -1 3l1 6l-1 1q-7 1 -10 3q-1 1 -1 2l-2 3l-12 18q-1 2 1 5l8 10l1 1v1l1 15v3v1q0 2 1 2l2 3q0 1 1 2l1 2q0 1 1 2l2 2l4 1l1 2q0 1 1 2q2 1 3 1h5l1 -1l8 -1h1l6 -3l5 -2l1 1h2l9 -2h1
q3 -2 6 -3q1 0 2.5 -0.5t2.5 -1.5q0 2 1 3q2 2 4 1l8 -4v1v2l-2 1h-2h-2q-16 9 -17 10t-1 2q-3 3 -3 5q-2 1 -3 2q-1 0 -2 1q-106 65 -229 65q-120 0 -224 -62h1h2q2 1 4 -1l1 -1q2 -1 2 -3l1 -2l1 1q-2 2 -1 4q0 2 2 3l9 6l1 1l15 6q1 0 2 1h1h7h1v0q3 4 5 5l9 4h1l13 1
q3 1 4 -2q1 1 3 2q3 2 6 1l4 1q2 1 3 0q4 -3 4 -5q0 -1 -1 -2q1 -1 2 -1l3 5q0 1 1 2q6 4 8 4q3 0 4 -2t0 -4l-3 -5q0 -1 -1 -1q5 -2 6 -3v1q-1 2 1 4l6 8q1 0 1 1l7 4q2 2 4 3q4 0 5 -4v-5q1 1 2 1l1 1q1 3 4 6q1 3 5 5q1 1 3 0q2 0 4 2q2 3 4 3q0 1 2 2q2 0 2 1q0 2 3 3.5
t7 1.5h2q7 -2 7 -8v0q2 1 3 1h1h1q4 -1 6 -7q0 -1 1 -1q1 -2 5 -2q3 0 4 -2h1l2 2q8 6 13 8q2 0 5 -1q2 1 3 1h7h8q13 1 20 1q8 -2 12 -4q2 -2 4 -5q1 -2 2 -3t1 -2q2 1 4 1h1q1 -1 4 -1q7 -2 9 -5q1 -1 1 -3t-1 -3l-3 -3q-2 -1 -4 0h-2q-1 -1 -2 -1q3 -5 4 -8q1 -1 0 -3v-2
l-2 -13q0 -2 -1 -3v-2q1 -1 0 -2l-1 -2q-1 -2 -1 -3l-2 -3q-1 -3 -3 -3h-1l-25 -10h-2h-1l-7 1l-12 -6q-7 -6 -9 -6h-1l-2 1l-2 -1l-1 -1l-13 -4q-5 -6 -16 -18l-6 -6h-2l-8 -2q-2 -1 -4 1q-1 1 -2 1l-2 5h-4h-2l-1.5 1t-1.5 2l-4 18q-1 1 0 2q0 2 2 3h1l2 1q-1 1 -1.5 2.5
t-0.5 2.5l2 7v1l1 2q9 8 11 8h6q-1 0 -1 1l-1 1q-1 2 -1 3q-1 1 -1 3q0 1 -1 2v3l3 8v2l-4 1h-10q-1 0 -2 1q-2 1 -2 2l-1 3v1v1q0 2 1 3q-1 1 -1 2v1q-1 -2 -3 -3l-6 -1h-1h-2l-2 -2q-7 -5 -11 -6h-2h-1q-4 -5 -5 -5h1q0 -1 1 -1l1 -1q8 -12 7 -15l-4 -5q8 -10 8 -13
q0 -1 -2 -3h-1q-16 -9 -18 -9q-1 0 -2 1q-10 -10 -13 -10h-2h-1h-1h-1q-3 -6 -5 -7h1q2 -2 2 -4q-3 -14 -4 -18l-1 -3v-1l2 -1q2 -2 1 -4v-1q-1 -5 -2 -8q0 -1 -1 -1l8 -2q3 -1 3 -3q1 -2 0 -3l-4 -6q1 -1 2 -3q1 -3 -1 -5l-7 -5q4 -2 5 -4v-4l-1 -1q2 -2 2 -5q0 -1 -1 -3
q0 -1 -1 -3q-8 -5 -10 -5v-1h-4q-2 1 -3 2q-1 -1 -3 -1l-4 -1q-2 1 -4 3l-1 2q-12 2 -14 5q-1 2 1 4l2 3q-1 2 -1 3q0 3 2 4h-17q1 -1 1 -2v-1q0 -3 -1 -4l-6 -5q-1 -1 -2 -1h-1q0 -2 -1 -5l3 -3q12 12 14 12q3 0 5 -2q1 -1 1 -4l-2 -5q3 -3 2 -6q-1 -1 -2 -1q-5 -4 -7 -5
h-5v-1l-1 -1q-1 -1 -2 -1l-8 -3q-13 -5 -21 -8q-3 -1 -4 1l-2 1q-1 2 0 4v3l-12 -6q-1 -1 -2 -1h-1h-4l-3 -5v-1q1 -2 0 -4l-5 -5q-1 -1 -3 -2l-18 -1l-2 -4q0 -1 -1 -1l-17 -17q-2 -2 -5 0l-1 1q-1 -6 -3 -14l-1 -2l-2 -2q-7 -5 -19 -13l-12 -8h-1h-1l-10 -16
q-1 -10 -3 -20l-3 -10h4q4 0 5 -4q2 -10 1 -11q0 -3 -4 -4h-1h-5q-4 1 -5 4l-1 5v1l-2 -2q-1 -1 -3 -1q-4 0 -7 2q-2 1 -2 4l1 31l-11 4q-2 -8 -6 -10q-2 -1 -4 1l-9 8h-6q-2 -3 -13 -21l-4 -6l-5 -13l-5 -26l5 -14l6 1l4 15q1 2 3 3l18 2h2q1 0 1 -1q6 12 8 13h1l11 2
q1 1 1 0h3q5 -4 18 -13q11 -7 13 -9l1 1q1 3 2 5q2 2 4 3q4 1 6 -3q3 -9 3 -10q-1 -4 -5 -5h-4l-1 -1h1q0 1 1 1h1h3q2 1 3 0q2 0 2 -1l5 -2l12 -6q1 2 4 2q2 1 4 -1l3 -2q1 -1 5 -4q1 2 3 2h3l1 -1h3q9 -1 12 -2t4 -4h1q3 0 4.5 -2t1.5 -4v-1q2 -1 3 -3l2 -7q0 -4 -3 -5v-3
v-1q3 -8 2 -10l-2 -2q1 -4 2 -5l2 -7q0 -3 -3 -5l2 -5v-1q6 0 13 -1q4 0 4 -4v-2q0 -1 -1 -2l-4 -4v-7q-1 -3 -3 -3l-1 -1h-1l14 -13l11 1q2 0 3 -1l6 -4l19 -9q1 0 2 -1l1 -1q0 -1 1 -2l11 -16l8 -7h1q1 1 3 -1q1 -1 1 -2q1 -2 0 -4v-1l2 -1h1l1 -1l11 -8l11 -4l30 -4h1v-1
q16 -7 38 -18q2 -1 2 -3l4 -21v-2v-2l-8 -13v-1l-7 -12v-1l-1 -1l-1 -1l-4 -1l-2 -3l5 -23v-2q-1 -4 -4 -27l-1 -6q-1 -2 -2 -3q-12 -6 -28 -15l7 -20q1 -2 -1 -4v-1v-4v-1q0 -1 -1 -2v-1l-2 -8q0 -1 -1 -1l-1 -1l-2 -6v-2q-1 -1 -3 -2h-1q2 -1 3 -2t1 -2l1 -8q1 -1 0 -2
q0 -2 -1 -3l-5 -3q0 -1 1 -2q1 -2 -1 -4h1l1 -1q5 -6 11 -13q1 -2 1 -3l5 -2q1 0 2 -1q1 -2 3 -3v-1l5 -7l5 -3h1l2 -2h1q1 0 1 -1l6 -1q-1 1 -1 2q-1 4 2 5h1l1 1h2h1q5 -2 5 -3l4 -4q1 -1 1 -3t-2 -3l-1 -1h-1h-2v0q1 -1 0 -3v-1h-1q35 -5 63 -5q91 0 172.5 35.5
t143.5 98.5zM357 714l3 -2h1l9 -10q3 -3 0 -6l-3 -3h1l13 7q-10 7 -11.5 8.5t-0.5 4.5l1 1l-1 1q-10 -2 -12 -1zM376 730l3 4v1l6 4l-5 2l-12 -11h8zM364 729l-13 -3v-1l-1 -7q1 0 1 -1l5 -2l-1 1q-1 2 0 5l6 6v0q2 1 3 2z" />
    <glyph glyph-name="uniE621" unicode="&#xe621;" 
d="M512 758l419 -285l-160 -473h-518l-160 472zM512 811l-469 -322l179 -532h580l179 532zM512 604l257 -180l-98 -296h-318l-98 295zM512 657l-307 -217l117 -355h380l117 355zM512 707l-213 -341l426 -341z" />
    <glyph glyph-name="uniE622" unicode="&#xe622;" 
d="M418 206q-23 -46 -12 -80.5t49 -56.5q35 -22 73.5 -14t63.5 51q30 53 138 325t95 279.5t-194.5 -222t-212.5 -282.5zM512 586q32 0 64 -6q35 44 70 87q-65 19 -134 19q-103 0 -196 -42t-159.5 -113.5t-105.5 -171.5t-39 -211q0 -28 2 -56q2 -20 18 -33.5t36.5 -11.5
t34 18t11.5 36q-2 23 -2 47q0 121 53 221.5t145 158.5t202 58zM873 523q-19 -50 -42 -108q81 -117 81 -267q0 -24 -2 -48q-2 -20 11.5 -36t33.5 -18h5q19 0 33.5 13t15.5 32q3 28 3 57q0 109 -36.5 205.5t-102.5 169.5z" />
    <glyph glyph-name="uniE623" unicode="&#xe623;" 
d="M63 6h896v-70h-896v70zM63 832h70v-896h-70v896zM261 128q-35 0 -59.5 24.5t-24.5 59.5t24.5 59.5t59.5 24.5h7l90 150q-13 21 -13 46q0 35 24.5 59.5t59 24.5t59.5 -24.5t25 -59.5q0 -25 -14 -46l90 -150h8h5l149 261q-14 21 -14 47q0 35 24.5 59.5t59 24.5t59.5 -24.5
t25 -59.5t-25 -59.5t-59 -24.5h-6l-149 -261q15 -21 15 -47q0 -35 -25 -59.5t-59.5 -24.5t-59 24.5t-24.5 59.5q0 25 13 46l-90 150h-8h-7l-90 -150q14 -21 14 -46q0 -35 -25 -59.5t-59 -24.5z" />
    <glyph glyph-name="uniE624" unicode="&#xe624;" 
d="M644 272.5q0 -27.5 19.5 -47t47 -19.5t46.5 19.5t19 47t-19 47t-46.5 19.5t-47 -19.5t-19.5 -47zM600 368q24 0 41.5 17t17.5 41.5t-17.5 42t-41.5 17.5t-41.5 -17.5t-17.5 -42t17.5 -41.5t41.5 -17zM644 515q24 0 41.5 17t17.5 41.5t-17.5 42t-41.5 17.5t-41.5 -17.5
t-17.5 -42t17.5 -41.5t41.5 -17zM828 559q21 0 36 15t15 36.5t-15 36.5t-36 15t-36.5 -15t-15.5 -36.5t15.5 -36.5t36.5 -15zM791 383q24 0 41.5 17t17.5 41.5t-17.5 41.5t-41.5 17t-41.5 -17t-17.5 -41.5t17.5 -41.5t41.5 -17zM298.5 177q21.5 0 36.5 15t15 36.5t-15 36.5
t-36.5 15t-36.5 -15t-15 -36.5t15 -36.5t36.5 -15zM394.5 309q30.5 0 52 21.5t21.5 52t-21.5 52t-52 21.5t-52 -21.5t-21.5 -52t21.5 -52t52 -21.5zM409 169.5q0 -21.5 15 -36.5t36.5 -15t36.5 15t15 36.5t-15 36.5t-36.5 15t-36.5 -15t-15 -36.5zM548.5 221q21.5 0 36.5 15
t15 36.5t-15 36.5t-36.5 15t-36.5 -15t-15 -36.5t15 -36.5t36.5 -15zM218 89v691h-89v-765h765v74h-676z" />
    <glyph glyph-name="uniE625" unicode="&#xe625;" 
d="M911 223q-5 31 -17.5 61.5t-25 50t-27 38t-19.5 23.5l-9 9q3 29 1 50t-7 34t-10.5 20t-9.5 10l-4 3q-2 62 -18.5 112.5t-39.5 81.5t-54 53.5t-57 32.5t-54 15.5t-38.5 6t-17.5 0.5q-6 0 -16.5 -0.5t-39 -6t-54 -15.5t-57 -32.5t-54.5 -53.5t-39.5 -81.5t-17.5 -112.5
q-2 -1 -4.5 -3t-9.5 -10t-10.5 -20.5t-7 -34t0.5 -49.5l-9 -9q-5 -5 -19.5 -23.5t-26.5 -38t-24.5 -50t-17.5 -61.5q-1 -4 -1 -10t1 -22t3.5 -28t9 -21t15.5 -8t25 17t37 50q23 -62 64 -117q-3 -1 -8 -3.5t-17.5 -10t-21.5 -17t-16 -26t-5 -34.5q0 -3 1 -8t9 -17t23 -21.5
t47.5 -16t77.5 -5.5q13 1 32.5 4t59.5 17t55 36h30q15 -22 52 -36t66 -17l29 -4q45 -1 78 5.5t47.5 15.5t23 21.5t9 17.5t0.5 8q2 18 -4.5 34t-16.5 26t-20.5 17.5t-18.5 10.5l-8 3q19 24 35 53.5t23 46.5l6 17q72 -116 88 -34q3 17 3 56z" />
    <glyph glyph-name="uniE626" unicode="&#xe626;" 
d="M693 549q15 0 35 -2q-23 109 -127.5 181.5t-238.5 72.5q-98 0 -181 -40.5t-132 -111.5t-49 -156q0 -143 145 -245l-36 -109l127 64q6 -2 25 -5.5t27 -5t22.5 -4t26.5 -3t25 -0.5q16 0 34 1q-11 38 -11 76q0 119 89.5 203t218.5 84zM498 647q21 0 33.5 -12.5t12.5 -33
t-12.5 -33t-33.5 -12.5t-37.5 13t-16.5 32.5t16.5 32.5t37.5 13zM245 556q-22 0 -38.5 13t-16.5 32.5t16.5 32.5t38.5 13q20 0 32.5 -12.5t12.5 -33t-12.5 -33t-32.5 -12.5zM1024 266q0 71 -43 132t-113.5 96t-151.5 35q-129 0 -218.5 -77t-89.5 -186t89.5 -186t218.5 -77
q37 0 109 18l99 -54l-27 90q127 96 127 209zM616 312q-13 0 -24.5 11t-11.5 24.5t11.5 25t24.5 11.5q20 0 33 -11t13 -25.5t-13 -25t-33 -10.5zM815 312q-13 0 -24.5 11t-11.5 24.5t11.5 25t24.5 11.5q20 0 33 -11t13 -25.5t-13 -25t-33 -10.5z" />
    <glyph glyph-name="uniE627" unicode="&#xe627;" 
d="M708 503v319q-6 3 -18 8.5t-49 16t-75 15.5t-93 1t-107 -22zM738 315v494q8 -4 20.5 -11t47.5 -32t64.5 -55.5t60.5 -81t46 -107.5zM638 172l344 320q2 -4 5.5 -12t9.5 -37t5.5 -62.5t-13 -90t-37.5 -118.5h-314zM462 131h465q-2 -6 -7 -16.5t-25.5 -40t-47 -55
t-74 -54.5t-103.5 -47zM310 233v-300q5 -3 14.5 -8t41.5 -15.5t67.5 -15.5t91 -3t113.5 17zM41 217l236 209v-475q-6 2 -16 6.5t-39.5 24.5t-57 47t-62.5 77t-61 111zM35 250q-2 7 -5 19.5t-8.5 50.5t-5.5 74.5t10 86t31 91.5h324zM77 605q3 7 8.5 17.5t27.5 41t48.5 57
t72 58t97.5 51.5l221 -225h-475z" />
    <glyph glyph-name="uniE628" unicode="&#xe628;" 
d="M743 394q-17 4 -21.5 10.5t-1.5 11.5l4 6q1 2 3.5 6.5t6 17t4.5 25t-4 28t-18 27.5q-15 15 -39.5 20t-49 1t-47 -10t-36.5 -12l-14 -6q-10 -3 -17.5 -4.5t-11.5 0t-6 3.5t-1.5 8t1 10t3 13.5t3.5 15.5q0 16 -2.5 30t-12 29.5t-25 23.5t-44 7.5t-66.5 -13.5
q-27 -9 -55.5 -25.5t-52.5 -35.5t-46 -39.5t-39 -39t-29.5 -34t-19.5 -24.5l-7 -9q-22 -30 -37.5 -60.5t-21.5 -51.5t-8.5 -41t-2.5 -26.5t1 -9.5q6 -53 31.5 -94.5t61 -67.5t84 -44t93 -26.5t94.5 -12.5q81 -6 168 13.5t162 66.5t106 113q19 39 19 73t-12 55.5t-31 38
t-36 24t-30 9.5zM408 53q-118 -6 -201 46t-83 131q0 78 82.5 134.5t201.5 61.5q120 6 202.5 -39.5t82.5 -122.5q0 -80 -84 -143t-201 -68zM377 357q-32 -4 -57.5 -15t-39.5 -26t-24 -32t-13.5 -34t-5 -30t-1.5 -22l1 -8v-5q0 -3 2.5 -12.5t6 -18t12.5 -18.5t22 -17
q71 -35 134 -21t101 64q15 18 20 45.5t-2.5 55.5t-24.5 51.5t-51.5 35.5t-79.5 7zM337 148.5q-22 -2.5 -37.5 9t-15.5 29.5q0 19 14.5 35t35.5 19q25 2 40.5 -10t15.5 -31t-15.5 -34t-37.5 -17.5zM430.5 228.5q-7.5 -5.5 -15.5 -5t-12 7.5q-5 6 -3 15.5t9 14.5q9 6 17 5
t12 -7.5t2 -15.5t-9.5 -14.5zM820 459q9 0 16.5 6t8.5 15v3q4 36 -1.5 63t-18 42t-28 25t-32 12.5t-30.5 3.5t-23 -1l-9 -1q-10 0 -18 -7.5t-8 -18.5t8 -18.5t18 -7.5q34 7 54 0.5t28 -21.5t10 -30.5t0 -27.5l-1 -12q0 -10 7.5 -17.5t18.5 -7.5zM801 762q-55 13 -129 -1
q-1 0 -2 -1t-2 -1h-1q-12 -4 -19.5 -14t-7.5 -23q0 -15 11 -26.5t26 -11.5q21 3 34 8q6 1 19.5 2.5t36 -4.5t45 -14.5t46.5 -28.5t40 -47q29 -65 12 -126q-8 -18 -8 -36q0 -15 11 -24.5t27 -9.5t24.5 6t11.5 26q20 61 15.5 110.5t-21.5 86.5t-46.5 63.5t-60 42.5t-62.5 23z
" />
    <glyph glyph-name="uniE629" unicode="&#xe629;" 
d="M512 832q-118 0 -202 -84t-84 -203q0 -83 45 -153q26 -21 40 6q3 13 -4 25l-1 1v2v0q-32 55 -32 119q0 99 69.5 169t168.5 70t168.5 -70t69.5 -168.5t-69.5 -168.5t-168.5 -70q-24 0 -49 5h-1q-1 1 -3 1t-8.5 0.5t-9.5 -1.5q-2 0 -3 -1v0q-24 -11 -11 -34q6 -6 13 -8
q36 -10 72 -10q118 0 202 84t84 202.5t-84 202.5t-202 84zM525 645q-40 0 -68 -28.5t-28 -68.5q0 -17 6 -34q-29 -32 -57 -74q-129 -192 -113 -482q0 -13 11.5 -18.5t22.5 0t10 18.5q-15 271 105 455q22 34 47 63q28 -24 64 -24q39 0 67.5 28.5t28.5 68t-28.5 68t-67.5 28.5
z" />
    <glyph glyph-name="uniE62A" unicode="&#xe62a;" 
d="M750 624q3 0 9.5 -0.5t23.5 -5.5t29.5 -14t23 -28.5t10.5 -46.5q-1 -1 0.5 -9.5t-4 -23t-13.5 -28t-29 -23.5t-50 -11q-4 0 -10.5 0.5t-23 5.5t-28.5 14t-22 28.5t-10 46.5q0 4 0.5 9.5t5.5 21t13.5 27.5t28 23t46.5 14zM940 769q2 0 5.5 -0.5t12 -3.5t15.5 -8
t12.5 -14.5t5.5 -22.5v-668q-1 -2 -1 -5t-3.5 -11.5t-8 -15t-15 -11.5t-23.5 -6v766zM33 52q0 -2 0.5 -5.5t3.5 -11.5t7.5 -14.5t14.5 -12t23 -5.5h858v142h-94l-190 193l-144 -144l-195 240l-192 -287l-43 -1l-1 574h-48v-668zM940 769h-858h-5q-3 0 -11.5 -2.5t-15 -7
t-12 -15t-5.5 -24.5h907v49z" />
    <glyph glyph-name="uniE62B" unicode="&#xe62b;" 
d="M381 828q27 0 45.5 -18.5t18.5 -45.5v-256q0 -27 -18.5 -46t-45.5 -19h-256q-27 0 -45.5 19t-18.5 46v256q0 27 18.5 45.5t45.5 18.5h256zM381 315q27 0 45.5 -18t18.5 -45v-256q0 -27 -18.5 -46t-45.5 -19h-256q-27 0 -45.5 19t-18.5 46v256q0 27 18.5 45t45.5 18h256z
M894 828q27 0 45 -18.5t18 -45.5v-256q0 -27 -18 -46t-45 -19h-256q-27 0 -46 19t-19 46v256q0 27 19 45.5t46 18.5h256zM894 315q27 0 45 -18t18 -45v-256q0 -27 -18 -46t-45 -19h-256q-27 0 -46 19t-19 46v256q0 27 19 45t46 18h256z" />
    <glyph glyph-name="uniE62C" unicode="&#xe62c;" 
d="M922 805h33v-825h-885v33l851 2zM479 770q0 14 10 24.5t24 10.5h102q14 0 24 -10.5t10 -24.5v-687h-170v687zM683 564q0 14 10 24t24 10h102q14 0 24 -10t10 -24v-481h-170v481zM274 358q0 14 10 24t24 10h103q14 0 24 -10t10 -24v-275h-171v275zM104 186h102
q14 0 24 -10t10 -24v-69h-170v69q0 14 10 24t24 10z" />
    <glyph glyph-name="uniE62D" unicode="&#xe62d;" 
d="M82 896h860l-437 -561zM372 48l269 -176v654h-269v-478z" />
    <glyph glyph-name="uniE62E" unicode="&#xe62e;" horiz-adv-x="1047" 
d="M794 884q-9 -2 -174 -33t-201 -39q-14 -3 -23.5 -6t-18 -9t-13 -9.5t-8.5 -15t-5.5 -18.5t-2.5 -26.5t-1 -32.5v-43q0 -74 1 -249t1 -182q0 -47 -12.5 -69.5t-42.5 -22.5q-18 0 -57 -1t-50 -1q-57 0 -85 -60t-3 -120q31 -73 117 -74q102 0 131 8q84 24 84 103v508
q-1 23 3 37.5t12.5 22t15.5 10t19 5.5q4 1 5 1q2 0 147.5 30.5t183.5 39.5q9 3 16 1.5t12 -2.5t8 -5.5t4.5 -8t2 -9.5t0.5 -9v-8v-6v-292q0 -61 -35 -61q-83 4 -123 -6q-45 -13 -70.5 -44t-26.5 -67t10.5 -69.5t39 -56t61.5 -22.5q17 0 47 -0.5t42 -0.5t30 3t33 9
q33 14 53.5 44.5t20.5 67.5q0 22 1 353t1 383q0 20 -6 33.5t-17.5 19.5t-23.5 9t-29 1.5t-28 -3t-26.5 -5t-19.5 -3.5zM794 884z" />
    <glyph glyph-name="uniE62F" unicode="&#xe62f;" 
d="M743 819h-660q-7 0 -12.5 -5t-5.5 -12v-858q0 -7 5.5 -12.5t12.5 -5.5h858q7 0 12 5.5t5 12.5v663zM177 685q0 7 5 12t12 5h440q8 0 13 -5t5 -12v-104q0 -7 -5 -12t-13 -5h-440q-7 0 -12 5t-5 12v104zM847 54q0 -7 -5 -12t-12 -5h-636q-7 0 -12 5t-5 12v312q0 7 5 12
t12 5h636q7 0 12 -5t5 -12v-312zM789 332q0 6 -4 10t-10 4h-83q-6 0 -10 -4t-4 -10v-83q0 -6 4 -10t10 -4h83q6 0 10 4t4 10v83z" />
    <glyph glyph-name="uniE630" unicode="&#xe630;" horiz-adv-x="1025" 
d="M896 671h-192v128q0 26 -19 45t-45 19h-256q-26 0 -45 -19t-19 -45v-128h-192q-53 0 -90.5 -37.5t-37.5 -89.5v-511q0 -53 37.5 -90.5t90.5 -37.5h768q53 0 90.5 37.5t37.5 90.5v511q0 52 -37.5 89.5t-90.5 37.5zM384 799h256v-128h-256v128zM768 224h-192v-191h-128v191
h-192v128h192v192h128v-192h192v-128zM768 224z" />
    <glyph glyph-name="uniE631" unicode="&#xe631;" 
d="M514 242v-208q0 -6 4 -10t10 -4h105q6 0 10.5 4t4.5 10v277l-107 -92zM65 34q0 -6 4 -10t10 -4h105q6 0 10 4t4 10v212l-133 -110v-102zM289 321v-287q0 -6 4.5 -10t9.5 -4h106q6 0 10 4t4 10v285l-67 57zM738 34q0 -6 4.5 -10t10.5 -4h105q6 0 10 4t4 10v471l-134 -116
v-355zM715 748q-3 0 -4 -3t1 -5l101 -99l-272 -234l-185 157l-292 -241v-104l292 241l185 -157l328 283l83 -82q2 -2 5 -1t3 4v236q0 2 -1.5 3.5t-3.5 1.5h-240z" />
    <glyph glyph-name="uniE632" unicode="&#xe632;" 
d="M932 669q-9 -9 -76 -71q-28 -28 -64 -28t-64.5 28.5t-28.5 64.5t28 64q16 16 34 35t28 30l10 12q-75 35 -161 21t-148 -76q-56 -56 -73.5 -133t7.5 -148l-322 -321q-36 -36 -36 -86.5t36 -86t86.5 -35.5t86.5 36l322 321q70 -25 147.5 -7.5t133.5 73.5q62 61 76 146.5
t-22 160.5z" />
    <glyph glyph-name="uniE633" unicode="&#xe633;" 
d="M463 744v-6v-377q0 -6 4 -10l272 -272l3 -2q-49 -54 -119.5 -85t-150.5 -33.5t-161 30.5q-89 38 -149 109.5t-81 159t-2 176.5q20 94 79 166t139 109t166 35zM529 418v391q69 3 139 -24.5t126.5 -77.5t91.5 -126t35 -163h-392zM839 74l-1 1l-1 1l-1 1l-1 1l-1 1l-1 1
l-1 1l-1 1l-1 1l-1 1l-1 1l-1 1l-1 1l-1 1l-1 1l-1 1l-1 1l-1 1l-1 1l-1 1l-1 1l-1 1l-1 1l-1 1h-1l-1 1l-1 1l-1 1l-1 1l-1 1l-1 1l-1 1l-1 1l-1 1l-1 1l-1 1l-1 1l-1 1l-1 1l-1 1l-1 1l-1 1l-1 1l-1 1l-1 1l-1 1l-1 1l-1 1l-1 1l-1 1l-1 1l-1 1l-1 1l-1 1l-1 1l-1 1l-1 1
l-1 1l-1 1l-1 1l-1 1l-1 1l-1 1l-1 1l-1 1l-1 1l-1 1l-1 1l-1 1l-1 1l-1 1l-1 1l-1 1l-1 1l-1 1l-1 1l-1 1l-1 1l-1 1l-1 1l-1 1l-1 1l-1 1l-1 1l-1 1l-1 1l-1 1l-1 1l-1 1l-1 1l-1 1l-1 1l-1 1l-1 1l-1 1l-1 1l-1 1l-1 1l-1 1l-1 1l-1 1l-1 1l-1 1l-1 1l-1 1l-1 1l-1 1
l-1 1l-1 1l-1 1l-1 1l-1 1l-1 1l-1 1l-1 1l-1 1l-1 1l-1 1l-1 1l-1 1l-1 1l-1 1l-1 1l-1 1l-1 1l-1 1l-1 1l-1 1l-1 1l-1 1l-1 1l-1 1l-1 1l-1 1l-1 1l-1 1l-1 1l-1 1l-1 1l-1 1l-1 1l-1 1l-1 1l-1 1l-1 1l-1 1l-1 1l-1 1h-1l-1 1l-1 1l-1 1l-1 1l-1 1l-1 1l-1 1l-1 1l-1 1
l-1 1l-1 1l-1 1l-1 1l-1 1l-1 1l-1 1l-1 1l-1 1l-1 1l-1 1l-1 1l-1 1l-1 1l-1 1l-1 1l-1 1l-1 1l-1 1l-1 1l-1 1l-1 1l-1 1l-1 1l-1 1l-1 1l-1 1l-1 1l-1 1l-1 1l-1 1l-1 1l-1 1l-1 1l-1 1l-1 1l-1 1l-1 1l-1 1l-1 1l-1 1l-1 1l-1 1l-1 1l-1 1l-1 1l-1 1l-1 1l-1 1l-1 1
l-1 1l-1 1l-1 1l-1 1l-1 1l-1 1l-1 1l-1 1l-1 1l-1 1l-1 1l-1 1l-1 1l-1 1l-1 1l-1 1l-1 1l-1 1l-1 1l-1 1l-1 1l-1 1l-1 1l-1 1l-1 1l-1 1l-1 1l-1 1l-1 1l-1 1l-1 1l-1 1l-1 1l-1 1l-1 1l-1 1l-1 1l-1 1l-1 1l-1 1l-1 1l-1 1l-1 1l-1 1l-1 1l-1 1l-1 1l-1 1l-1 1l-1 1
l-1 1l-1 1l-1 1l-1 1l-1 1l-1 1l-1 1l-1 1l-1 1l-1 1l-1 1l-1 1l-1 1l-1 1l-1 1l-1 1l-1 1l-1 1l-1 1l-1 1l-2 1h395q2 -63 -25.5 -139.5t-89.5 -137.5z" />
    <glyph glyph-name="uniE634" unicode="&#xe634;" 
d="M757 858h-454h-7q-4 0 -15.5 -4t-20 -10t-15.5 -20t-7 -33v-814q1 -1 0 -7t2 -16.5t8.5 -20t19 -16.5t32.5 -7h460h8q4 0 14.5 3.5t19 9.5t15.5 19.5t7 31.5v817v7q-1 7 -4 16.5t-9.5 19.5t-20.5 17t-33 7zM465 825h130v-32h-130v32zM416 825q7 0 11.5 -4.5t4.5 -11.5
t-4.5 -11.5t-11.5 -4.5t-11.5 4.5t-4.5 11.5t4.5 11.5t11.5 4.5zM530 -25q-13 0 -22.5 9.5t-9.5 23t9.5 23.5t23 10t23 -10t9.5 -23.5t-9.5 -23t-23.5 -9.5zM760 106h-459v654h459v-654zM760 106z" />
    <glyph glyph-name="uniE635" unicode="&#xe635;" 
d="M805 227q-73 0 -117 -58l-307 183q6 22 6 42q0 4 -1 13l307 185q44 -51 112 -51q60 0 103 42.5t43 103.5t-43 103.5t-103.5 42.5t-103.5 -42.5t-43 -103.5q0 -23 8 -46l-305 -158q-23 36 -60 57.5t-81 21.5q-70 0 -119 -49t-49 -118.5t49 -118.5t119 -49q74 0 124 56
l319 -165q-5 -19 -5 -37q0 -61 43 -103.5t103.5 -42.5t103.5 42.5t43 103.5t-43 103.5t-103 42.5z" />
    <glyph glyph-name="uniE636" unicode="&#xe636;" 
d="M871 823h-721q-32 0 -54.5 -22.5t-22.5 -54.5v-575q0 -32 22.5 -54.5t54.5 -22.5h157v-128q0 -8 6 -13.5t14 -5.5q7 0 12 4l185 143h347q31 0 53.5 22.5t22.5 54.5v575q0 32 -22.5 54.5t-53.5 22.5zM874 712v-506q0 -16 -11 -27.5t-27 -11.5h-333l-123 -102v102h-196
q-16 0 -27 11.5t-11 27.5v506q0 16 11 27t27 11h652q16 0 27 -11t11 -27zM343 510q-15 14 -36 14q-26 0 -42 -21q-11 -15 -11 -33q0 -23 18 -39q15 -14 35 -14q25 0 41 19q13 15 13 34q0 24 -18 40zM545 510q-15 14 -34 14q-21 0 -37 -15q-16 -16 -16 -39q0 -20 14 -36
q16 -17 39 -17q24 0 40 19q13 15 13 34q0 25 -19 40zM745 513q-14 11 -31 11q-23 0 -39 -17q-14 -16 -14 -37t14 -36q16 -17 39 -17t38 17q15 15 15 36q0 27 -22 43z" />
    <glyph glyph-name="uniE637" unicode="&#xe637;" 
d="M128 486v-204h768v204h-768zM269 346h-77v76h77v-76zM832 358h-358v52h358v-52zM128 742v-204h768v204h-768zM269 602h-77v76h77v-76zM832 614h-358v52h358v-52zM128 230v-204h768v204h-768zM269 90h-77v76h77v-76zM832 102h-358v52h358v-52z" />
    <glyph glyph-name="uniE638" unicode="&#xe638;" horiz-adv-x="1621" 
d="M1373 45v739q0 21 -13.5 35.5t-32.5 14.5h-1025q-19 0 -32.5 -14.5t-13.5 -35.5v-739h-151v-61q0 -21 13.5 -35.5t32.5 -14.5h1332q19 0 32.5 14.5t13.5 35.5v61h-156zM911 24h-188v33h188v-33zM1278 106h-927v625h927v-625zM1278 106z" />
    <glyph glyph-name="uniE639" unicode="&#xe639;" 
d="M474 736h-295h-8h-22q-7 0 -18.5 -2t-16.5 -6t-9 -11.5t-4 -19.5v-590q0 -32 22 -54t53 -22h597q30 0 52 22t22 54v151h100v-252q0 -31 -22 -53.5t-53 -22.5h-796q-31 0 -53 22.5t-22 53.5v756q0 31 22 53t53 22h398v-101zM192 243q1 8 3 22.5t14.5 56t32 79t58.5 83.5
t90.5 79t132.5 55t179 21v198l319 -298l-319 -298v196q0 1 -17.5 2.5t-48 2t-70 -3t-87.5 -16t-95.5 -33t-98.5 -58.5t-93 -88z" />
    <glyph glyph-name="uniE63A" unicode="&#xe63a;" 
d="M494 96h38v-128h-38v128zM916 820h-806q-30 0 -50.5 -21t-20.5 -50v-582q0 -30 20.5 -50.5t50.5 -20.5h332v-128h-108q-11 0 -18.5 -7.5t-7.5 -18t7.5 -18t18.5 -7.5h358q11 0 18.5 7.5t7.5 18t-7.5 18t-18.5 7.5h-109v128h333q29 0 49.5 20.5t20.5 50.5v582
q0 29 -20.5 50t-49.5 21zM532 -32h-38v128h38v-128zM935 231h-845v51h845v-51z" />
    <glyph glyph-name="uniE63B" unicode="&#xe63b;" horiz-adv-x="1366" 
d="M594 196q27 -2 48 15l5 2l-148 148l-2 -5q-17 -21 -15 -49l-53 -164zM1130 795l-48 49q-20 20 -48.5 20t-48.5 -20l-47 -47l145 -145l47 47q20 20 20 48t-20 48zM1033 602l-145 145l-338 -338l146 -145zM1016 -27h-756v756h482v66h-480q-28 0 -48 -20t-20 -49v-753
q0 -29 20 -49t48 -20h754q28 0 48.5 20t20.5 49v479h-69v-479zM1016 -27z" />
    <glyph glyph-name="uniE63C" unicode="&#xe63c;" 
d="M495 835l-196 -339h392zM297 283l198 -344l198 344h-396zM297 283z" />
    <glyph glyph-name="uniE63D" unicode="&#xe63d;" horiz-adv-x="1000" 
d="M108 639q11 -6 184 -99t179 -96q19 -10 44.5 -10t43.5 10q6 3 179 95.5t184 99.5q23 12 27 32q-1 18 -24 20h-819q-33 0 -23 -24q7 -18 25 -28zM932 542q-13 -7 -189 -99t-184 -96q-18 -10 -43.5 -10t-44.5 10q-7 4 -182.5 95.5t-190.5 99.5q-9 6 -13 3.5t-4.5 -5
t-0.5 -9.5v-355q0 -15 16 -30.5t32 -15.5h775q16 0 32 15.5t16 30.5v355q0 7 -0.5 9.5t-5 5t-13.5 -3.5z" />
    <glyph glyph-name="uniE63E" unicode="&#xe63e;" 
d="M404 276q16 -17 38.5 -34.5t36.5 -26.5l14 -9q3 -2 8 -5t18.5 -10t27 -10.5t30.5 -3t31 9.5q25 15 50 32.5t34 23.5t21.5 10.5t22 2t24.5 -11.5q37 -21 65.5 -41t46 -36t30 -31.5t17.5 -26.5t7 -21.5t2 -16t-2 -9.5q-14 -51 -92 -79t-169 -5q-208 51 -358 201t-201 358
q-23 91 5 169t79 92q4 2 9.5 2.5t16 -2t21.5 -7.5t26.5 -17t31.5 -29.5t36 -46.5t41 -65q9 -16 11.5 -25.5t-2 -22t-10.5 -21.5t-23.5 -34t-32.5 -50q-13 -26 -8.5 -51.5t15.5 -44.5l12 -19q33 -52 70 -89z" />
    <glyph glyph-name="uniE63F" unicode="&#xe63f;" 
d="M890 750h-43v13q0 29 -20.5 49.5t-49.5 20.5h-1q-29 0 -49.5 -20.5t-20.5 -49.5v-13h-387v13q0 29 -20.5 49.5t-49.5 20.5h-1q-29 0 -49.5 -20.5t-20.5 -49.5v-13h-43q-29 0 -49.5 -20.5t-20.5 -49.5v-671q0 -29 20.5 -50t49.5 -21h755q29 0 49.5 21t20.5 50v671
q0 29 -20.5 49.5t-49.5 20.5zM734 763q0 18 12 30t30 12h1q17 0 29.5 -12t12.5 -30v-125q0 -17 -12.5 -29.5t-29.5 -12.5h-1q-18 0 -30 12.5t-12 29.5v125zM206 763q0 18 12.5 30t29.5 12h1q18 0 30 -12t12 -30v-125q0 -17 -12 -29.5t-30 -12.5h-1q-17 0 -29.5 12.5
t-12.5 29.5v125zM890 -5h-755q-6 0 -10 4t-4 10v493h783v-493q0 -6 -4 -10t-10 -4zM224 402h129v-64h-129v64zM449 402h128v-64h-128v64zM673 402h126v-64h-126v64zM224 273h129v-63h-129v63zM449 273h128v-63h-128v63zM673 273h126v-63h-126v63zM224 147h129v-66h-129v66z
M449 147h128v-66h-128v66zM673 147h126v-66h-126v66z" />
    <glyph glyph-name="uniE640" unicode="&#xe640;" 
d="M512 831q-91 0 -173.5 -35.5t-142.5 -95.5t-95.5 -142.5t-35.5 -173.5t35.5 -173.5t95.5 -142.5t142.5 -95.5t173.5 -35.5t173.5 35.5t142.5 95.5t95.5 142.5t35.5 173.5t-35.5 173.5t-95.5 142.5t-142.5 95.5t-173.5 35.5zM512 49q-91 0 -168 45t-122 122t-45 168
t45 168t122 122t168 45t168 -45t122 -122t45 -168t-45 -168t-122 -122t-168 -45zM706 657l-467 -467q33 -46 79 -79l467 467q-33 46 -79 79z" />
    <glyph glyph-name="uniE641" unicode="&#xe641;" 
d="M178 503q41 11 38 97q-1 28 -19.5 46t-40.5 17q-28 -1 -45 -22t-16 -51q7 -44 34 -68t49 -19zM222 410q-9 27 -25 44l10 -59l6 -32q-16 35 -38 67.5t-30 36.5q-17 9 -32 10q-14 -6 -26.5 -23t-16.5 -44q-4 -117 -4 -256h85l98 151q-6 30 -10 47t-9 32t-8 26zM854 503
q22 -5 49 19t33 68q1 30 -15.5 51t-44.5 22q-22 1 -40.5 -17t-19.5 -46q-4 -86 38 -97zM962 410q-5 27 -17.5 44t-25.5 23q-16 -1 -33 -10q-8 -4 -29.5 -36.5t-38.5 -67.5l7 33l10 58q-7 -7 -13.5 -18t-9.5 -18l-3 -8q-3 -12 -7.5 -26.5t-9 -31.5t-9.5 -47l97 -151h86
q0 140 -4 256zM417 370q1 27 7 58t9 33h1v-109h171v99v-1l1 -1q13 -21 22 -32q5 -8 10 -13l6 -6q1 -1 2.5 -2t2.5 -2q4 -2 8 -3t9 -1q7 0 14 3q3 1 7 4q6 3 12 8q8 7 19 18q28 28 38 41q8 9 7 21t-10 19.5t-20.5 6.5t-19.5 -9q-14 -17 -30 -33q-5 -6 -13 -13q-2 2 -8 11
q-10 15 -24 38q-2 3 -8 13l-2 4l-1 1q-2 3 -5 6q-5 8 -40 18q-11 4 -20 6q-4 -43 -26 -89q-4 31 -8 54l7 17l-12 11h-8l-12 -11l7 -17q-8 -50 -8 -54q-22 46 -26 89v-1v1q-9 -2 -16 -7q-39 -12 -57 -22q-31 -32 -40 -151q-1 -13 -1 -21h54q0 10 1 18zM459 621
q7 -26 22.5 -42.5t38.5 -16.5t38.5 17t22.5 43q7 2 11 10.5t3 16.5q-1 9 -10 11q-1 30 -19 49.5t-46 19.5t-46 -19.5t-20 -48.5q-9 -2 -10 -12q-2 -9 3 -17.5t12 -10.5zM708 338q3 -3 6 -7l123 -203v-4l-642 1v3l125 204q1 2 4 6h-28l-140 -219v-38h2l716 -1h1v40l-138 218
h-29z" />
    <glyph glyph-name="uniE642" unicode="&#xe642;" 
d="M32 896h410q12 -1 19.5 -8.5t10 -24t3.5 -27.5t0 -34.5t-1 -29.5v-224q0 -8 1 -29t0.5 -32t-2.5 -25.5t-7.5 -23t-15 -12.5t-28.5 -4.5t-45 0.5t-32 1h-218q-9 0 -31.5 -1t-34 -0.5t-27 3t-24 10t-10.5 19.5v411q9 24 32 31v0zM88 804v-293h296v297h-294q-2 -1 -2 -4z
M583 896h411q26 -10 31 -37v-399q-6 -29 -29 -35q-12 -4 -29.5 -4t-41 1t-32.5 1h-211q-9 0 -33 -1.5t-42 -1t-30 4.5q-10 3 -16.5 12t-8.5 25t-2 28t0.5 34.5t0.5 30.5v209q0 10 -1 34t-0.5 36t3 27.5t10 24t20.5 10.5zM639 804v-293h297v297h-295q-2 -1 -2 -4zM223 718
q31 6 52.5 -11.5t22.5 -45.5q0 -36 -30 -53.5t-60 -2.5q-22 12 -29 37t5 48t39 28zM774 718q50 9 68 -32q14 -35 -8 -65q-20 -28 -60 -21q-29 5 -40.5 31.5t0 54t40.5 32.5zM440 -128h-407q-26 7 -33 32v409q8 25 28 30q12 3 29 3.5t40.5 -1t33.5 -1.5h211q9 0 32.5 1.5
t41.5 1.5t30 -4q11 -3 18 -12t9 -25t2.5 -28t-0.5 -34t-1 -30v-216q0 -9 0.5 -23.5t0.5 -24.5v-22q0 -13 -2.5 -21.5t-6 -17t-10.5 -12.5t-16 -5zM88 252v-292h296v296h-294q-2 0 -2 -4zM1025 308v-114q-2 -10 -1.5 -61.5t0.5 -62.5h-294v66q-6 2 -44 2h-47
q-2 -23 -1.5 -132.5t0.5 -133.5h-54q-13 2 -21 10.5t-10.5 24.5t-3 28t0.5 35.5t1 32.5v211q0 9 -1.5 33t-1 42t4.5 30q2 6 5.5 10.5t9.5 7.5t11 4.5t15 2t15 1t17.5 0t17.5 -0.5h199v-180h93q0 16 -0.5 91t1.5 89q23 1 42 0.5t32 -9.5t14 -27zM230 168q34 3 55 -23t9 -60
q-7 -18 -23.5 -28t-34.5 -8.5t-33.5 9.5t-23 26.5t-1.5 41.5q10 37 52 42zM830 -128h-100q1 9 0.5 53.5t1.5 52.5h98v-106zM1025 -22v-70q-5 -28 -33 -36h-70q0 9 -0.5 53.5t1.5 52.5h102v0zM1025 -22z" />
    <glyph glyph-name="uniE643" unicode="&#xe643;" 
d="M970 154q-79 117 -123 224.5t-48 229.5q-3 97 -60 166.5t-154 96.5q-166 47 -285 -95q-66 -80 -78 -220q-10 -112 -45 -195q-13 -32 -33 -66.5t-45 -75t-39 -64.5q-23 -41 -15 -52q7 -9 23 -15.5t31 -6.5q91 -1 413 -1q327 0 419 1q15 0 31 6.5t24 15.5q5 5 -1 21.5
t-15 29.5zM515 -111q67 0 105.5 38.5t37.5 105.5h-284q-3 -65 36 -104.5t105 -39.5z" />
    <glyph glyph-name="uniE644" unicode="&#xe644;" 
d="M572 449v316h-126v-316h-316v-126h316v-317h126v317h317v126h-317z" />
    <glyph glyph-name="uniE645" unicode="&#xe645;" 
d="M804 738v-431h-411v182l-265 -228l265 -227v182h457q18 0 31.5 13.5t13.5 31.5v477h-91zM804 738z" />
    <glyph glyph-name="uniE646" unicode="&#xe646;" 
d="M1015 626q-6 -2 -18 -7t-50.5 -26t-77 -48.5t-94.5 -76.5t-108 -107q-61 -70 -110.5 -132.5t-68 -88.5t-59 -89t-46.5 -72q-4 8 -13 22t-41 55.5t-71 81t-105.5 90.5t-141.5 91l138 132q5 -4 14.5 -11t36.5 -31t52.5 -50.5t57.5 -69t57 -86.5q4 7 13 20t40.5 52t67 77.5
t93.5 90.5t119.5 97t144.5 92t170 80v-86z" />
    <glyph glyph-name="uniE647" unicode="&#xe647;" 
d="M0 347q0 20 11 40q80 131 215 210t286 80t286 -80t215 -210q11 -20 11 -39.5t-11 -39.5q-80 -132 -215 -211t-286 -79t-286 79t-215 211q-11 20 -11 39zM73 347q77 -117 191.5 -186.5t247.5 -69.5t247.5 69.5t191.5 186.5q-87 135 -218 202q35 -60 35 -128
q0 -107 -75 -181.5t-181 -74.5t-181 74.5t-75 181.5q0 68 35 128q-131 -67 -218 -202zM338 421q0 -11 8 -19.5t19.5 -8.5t19.5 8.5t8 19.5q0 49 35 84t84 35q11 0 19.5 8t8.5 19.5t-8.5 19.5t-19.5 7q-72 0 -123 -51t-51 -122z" />
    <glyph glyph-name="uniE648" unicode="&#xe648;" 
d="M1024 384q0 138 -69 256t-187 187t-256 69t-256 -69t-187 -187t-69 -256t69 -256t187 -187t256 -69t256 69t187 187t69 256zM526 182h-60l-43 115h-176l-41 -115h-60l161 422h58zM406 345l-64 176q-3 8 -7 29h-1q-3 -19 -7 -29l-63 -176h142zM580 182v446h54v-446h-54z
M729 182v446h53v-446h-53z" />
    <glyph glyph-name="uniE649" unicode="&#xe649;" 
d="M825 489q-9 18 -31 20h-2l-209 1l54 267v3q3 25 -10 39q-11 12 -29 12q-14 0 -27 -7q-4 -3 -7 -6l-402 -476l-2 -2q-13 -19 -3 -37.5t36 -18.5h3h185l-103 -299q-1 -2 -2 -5q-2 -18 10 -31q11 -12 28 -12q10 0 23 5q5 2 9 6l472 499q1 2 3 4q13 20 4 38z" />
    <glyph glyph-name="uniE64A" unicode="&#xe64a;" 
d="M269 364q146 -3 191 -3q17 74 -6 145.5t-64 121.5t-100.5 96t-98.5 68t-74 39q130 1 234 -25.5t166.5 -65.5t107 -93.5t63.5 -99t28.5 -93.5t10 -66.5t-0.5 -27.5h182l-322 -424z" />
    <glyph glyph-name="uniE64B" unicode="&#xe64b;" 
d="M586 831l322 -425h-182q1 -10 0.5 -27t-10 -66t-28.5 -93.5t-63.5 -99t-107 -93.5t-166.5 -65.5t-234 -26.5q36 17 75 39t98 68t100 96t64 122t6 146l-191 -3z" />
    <glyph glyph-name="uniE64C" unicode="&#xe64c;" 
d="M511.5 832q-91.5 0 -174 -35.5t-142.5 -95.5t-95.5 -143t-35.5 -174t35.5 -174t95.5 -143t142.5 -95t174 -35t174 35t142.5 95t95.5 143t35.5 174t-35.5 174t-95.5 143t-142.5 95.5t-174 35.5zM761 389v-14q-2 -22 -18.5 -37.5t-38.5 -15.5h-130v-187h-71
q-23 1 -38.5 17.5t-15.5 39.5v130h-187v71q1 22 17.5 37.5t39.5 15.5h130v131v57h71q23 -2 38.5 -18.5t15.5 -38.5v-131h187v-57z" />
    <glyph glyph-name="uniE64D" unicode="&#xe64d;" 
d="M470 -97q-14 18 -36.5 47.5t-80 113t-101.5 157t-80 157.5t-36 135q0 90 44.5 166.5t121.5 120.5t168 44t168 -44t122 -120.5t45 -166.5q0 -51 -34.5 -132.5t-84 -162t-98.5 -152.5t-84 -118zM467 654q-59 0 -101 -41.5t-42 -99.5t42 -99.5t101 -41.5t100.5 41.5
t41.5 99.5t-41.5 99.5t-100.5 41.5z" />
    <glyph glyph-name="uniE64E" unicode="&#xe64e;" 
d="M168 922zM361 457h310v116q0 64 -45.5 109.5t-109.5 45.5t-109.5 -45.5t-45.5 -109.5v-116zM865 399v-348q0 -24 -17 -41t-41 -17h-581q-24 0 -41 17t-17 41v348q0 24 17 41t41 17h19v116q0 112 80 191.5t191.5 79.5t191 -79.5t79.5 -191.5v-116h20q24 0 41 -17t17 -41z
" />
    <glyph glyph-name="uniE64F" unicode="&#xe64f;" 
d="M2 595v-424h241l361 -296l1 1017l-362 -297h-241zM743 644q-16 16 -38 16t-38 -16t-16 -38t16 -38q75 -75 75 -180.5t-75 -180.5q-16 -16 -16 -38t16 -38t38 -16q23 0 38 16q50 50 78 116.5t28 139.5q0 74 -28 140.5t-78 116.5zM866 767q-16 16 -38 16t-38 -16t-16 -38
t16 -38q60 -59 93.5 -137.5t33.5 -166t-33.5 -166t-93.5 -137.5q-16 -16 -16 -38t16 -38t38.5 -16t37.5 16q75 74 116.5 172t41.5 207q0 110 -42 208t-116 172z" />
    <glyph glyph-name="uniE650" unicode="&#xe650;" horiz-adv-x="1171" 
d="M62 29q0 95 45.5 175.5t122.5 129.5q85 -64 192 -64t192 64q77 -49 122.5 -129.5t45.5 -175.5v-95h-720v95zM898 384h-129v-64h129v-129h64v129h129v64h-129v129h-64v-129zM422 354q99 0 169.5 70.5t70.5 169.5t-70.5 169.5t-169.5 70.5t-169.5 -70.5t-70.5 -169.5
t70.5 -169.5t169.5 -70.5z" />
    <glyph glyph-name="uniE651" unicode="&#xe651;" 
d="M884 211q62 135 24 277q-21 78 -71 143.5t-122 106.5l43 94l-247 -65l110 -230l46 98q100 -61 131 -176q28 -103 -17 -200q-28 -62 -78.5 -104t-113.5 -59q-18 -5 -37 -7l51 -106q10 3 15 4q86 23 156.5 81.5t109.5 142.5zM359 129q-102 61 -133 177q-28 103 17 200
q28 62 79 104t114 59q20 5 41 8l-51 106q-11 -3 -20 -5q-86 -23 -156.5 -81.5t-109.5 -142.5q-62 -135 -23 -277v-1q21 -78 71.5 -143.5t123.5 -106.5l-41 -90l247 66l-112 230zM359 129z" />
    <glyph glyph-name="uniE652" unicode="&#xe652;" 
d="M275 580q-3 -2 -1.5 -5.5t4.5 -3.5h147l-1 -240q0 -6 5 -11t11 -5h144q6 0 11 5t5 11l-1 240h147q3 0 4.5 3.5t-1.5 5.5l-226 210q-5 5 -11 5t-11 -5zM974 263l-142 109q-15 12 -33 12h-83l137 -137h-136l-70 -98h-273l-67 98h-136l136 137h-84q-19 0 -33 -12l-142 -109
q-15 -12 -9 -29l56 -174q3 -7 10 -12t15 -5h783q8 0 15 5t9 12l56 174q6 17 -9 29z" />
    <glyph glyph-name="uniE653" unicode="&#xe653;" 
d="M748 486q3 2 1.5 5.5t-4.5 3.5h-147v217q0 6 -4.5 10.5t-10.5 4.5h-144q-6 0 -11 -4.5t-5 -10.5l1 -217h-147q-4 0 -5 -3.5t2 -5.5l226 -211q5 -4 11 -4t11 4zM974 262l-142 111q-15 11 -33 11h-57l161 -137h-186l-70 -99h-273l-67 99h-185l166 137h-65q-19 0 -33 -11
l-142 -111q-15 -12 -9 -29l57 -174q2 -7 9 -12t15 -5h783q8 0 15 5t9 12l56 174q6 17 -9 29z" />
    <glyph glyph-name="uniE654" unicode="&#xe654;" 
d="M962 447q-2 15 -14.5 28t-27.5 16l-15 4q-55 17 -85 67q-29 51 -15 108l4 14q5 14 0 31.5t-17 27.5q-14 11 -53 34q-17 10 -31.5 17t-19.5 10l-5 2q-14 5 -31.5 0.5t-28.5 -15.5l-10 -11q-43 -40 -101 -40q-59 0 -101 40l-10 11q-10 11 -27.5 15.5t-32.5 -0.5
q-17 -7 -56 -29q-17 -10 -30.5 -18.5t-17.5 -12.5l-5 -3q-11 -10 -16 -27.5t-1 -31.5l4 -14q14 -57 -15.5 -108t-85.5 -67l-14 -4q-15 -3 -27.5 -16t-14.5 -28q-4 -18 -4 -63q0 -20 1 -36t2 -21l1 -6q2 -15 14.5 -28t27.5 -16l14 -3q56 -17 85.5 -68t15.5 -108l-4 -14
q-4 -14 1 -31.5t16 -27.5q14 -11 53 -34q18 -10 32 -17t19 -9l5 -3q15 -5 32.5 -0.5t27.5 15.5l10 10q42 41 101 41t101 -41h1l9 -10q11 -11 28 -15.5t32 0.5q17 7 56 29q11 6 20.5 12t15 10t10 7t5.5 4l2 1q12 10 17 27.5t0 31.5l-4 14q-14 57 16 108q29 51 85 68l14 3
q15 3 27.5 16t15.5 28q3 18 3 63q0 20 -1 36t-2 21zM512 203q-75 0 -128 53t-53 128t53 128t128 53t128 -53t53 -128t-53 -128t-128 -53z" />
    <glyph glyph-name="uniE655" unicode="&#xe655;" 
d="M511 -66h-252q-88 0 -131 56q-28 35 -29 87q-3 149 46 246q42 82 128 96q31 6 56 -12q64 -45 119 -59q100 -24 199 29q24 14 52 34q18 13 46 9q99 -14 142 -119q46 -112 34 -245q-4 -46 -37.5 -78.5t-82.5 -40.5q-21 -3 -44 -3h-246zM508 384q94 -1 160.5 65t67.5 160
q0 93 -65 159t-158.5 66.5t-160 -64.5t-66.5 -160q-1 -93 64 -159t158 -67z" />
    <glyph glyph-name="uniE656" unicode="&#xe656;" horiz-adv-x="1098" 
d="M339 384q-93 -3 -152 -73h-76q-47 0 -79 23t-32 68q0 201 71 201q3 0 24.5 -12t56 -24t67.5 -12q39 0 76 13q-2 -21 -2 -38q0 -79 46 -146zM951 20q0 -69 -42 -108.5t-111 -39.5h-499q-69 0 -111 39.5t-42 108.5q0 30 2 59t8 62.5t15.5 62t24.5 55.5t35 46.5t49 30.5
t64 11q6 0 24.5 -12t41.5 -27t61.5 -27.5t77 -12.5t77 12.5t61.5 27.5t41.5 27t24.5 12q35 0 64 -11t49 -30.5t35.5 -46.5t24.5 -55.5t15 -62t8 -62.5t2 -59zM366 749.5q0 -60.5 -43 -103.5t-103.5 -43t-103.5 43t-43 103.5t43 103.5t103.5 43t103.5 -43t43 -103.5zM768 530
q0 -91 -64.5 -155t-155 -64t-155 64t-64.5 155t64.5 155.5t155 64.5t155 -64.5t64.5 -155.5zM1097 402q0 -45 -32 -68t-79 -23h-76q-59 70 -152 73q47 67 47 146q0 17 -3 38q37 -13 76 -13q33 0 67.5 12t56 24t24.5 12q71 0 71 -201zM1024 749.5q0 -60.5 -43 -103.5
t-103.5 -43t-103.5 43t-43 103.5t43 103.5t103.5 43t103.5 -43t43 -103.5z" />
    <glyph glyph-name="uniE657" unicode="&#xe657;" 
d="M0 832h1024v-128h-1024v128zM384 640h640v-128h-640v128zM384 448h640v-128h-640v128zM384 256h640v-128h-640v128zM0 64h1024v-128h-1024v128zM0 192v384l256 -192z" />
    <glyph glyph-name="uniE658" unicode="&#xe658;" 
d="M0 832h1024v-128h-1024v128zM384 640h640v-128h-640v128zM384 448h640v-128h-640v128zM384 256h640v-128h-640v128zM0 64h1024v-128h-1024v128zM256 576v-384l-256 192z" />
    <glyph glyph-name="uniE659" unicode="&#xe659;" 
d="M594 788l124 -100l-156 -148l102 -106l152 158l102 -128v324l-324 -2v2zM358 334l-150 -156l-102 126v-324l324 2l-126 98l156 152l-102 100v2z" />
    <glyph glyph-name="uniE65A" unicode="&#xe65a;" 
d="M210 173l-158 -148l102 -102l148 158l102 -106v302h-302zM972 743l-102 102l-148 -160l-102 108v-302h302l-108 102z" />
    <glyph glyph-name="uniE65B" unicode="&#xe65b;" 
d="M402 110v402q0 8 -5 13t-13 5h-37q-8 0 -13 -5t-5 -13v-402q0 -8 5 -13.5t13 -5.5h37q8 0 13 5.5t5 13.5zM549 110v402q0 8 -5.5 13t-13.5 5h-36q-8 0 -13.5 -5t-5.5 -13v-402q0 -8 5.5 -13.5t13.5 -5.5h36q8 0 13.5 5.5t5.5 13.5zM695 110v402q0 8 -5 13t-13 5h-37
q-8 0 -13 -5t-5 -13v-402q0 -8 5 -13.5t13 -5.5h37q8 0 13 5.5t5 13.5zM384 677h256l-27 66q-4 6 -10 7h-181q-6 -1 -10 -7zM914 658v-36q0 -8 -5 -13.5t-13 -5.5h-55v-541q0 -48 -27 -82.5t-64 -34.5h-476q-37 0 -64 33.5t-27 80.5v544h-55q-8 0 -13 5.5t-5 13.5v36
q0 8 5 13.5t13 5.5h177l40 95q8 21 30.5 36t45.5 15h182q23 0 45.5 -15t30.5 -36l40 -95h177q8 0 13 -5.5t5 -13.5z" />
    <glyph glyph-name="uniE65C" unicode="&#xe65c;" 
d="M987 16l-219 219q84 107 84 244q0 108 -53.5 199.5t-145 144.5t-199.5 53t-199.5 -53t-145 -144.5t-53.5 -199.5t53.5 -200t145 -145t199.5 -53q137 0 244 83l218 -218q15 -14 35.5 -14t35 14.5t14.5 35t-14 34.5zM156 478.5q0 123.5 87.5 211t210.5 87.5t210.5 -87.5
t87.5 -211t-87.5 -211t-210.5 -87.5t-210.5 87.5t-87.5 211z" />
    <glyph glyph-name="uniE65D" unicode="&#xe65d;" 
d="M512 867q-95 0 -182 -38.5t-149.5 -103t-99.5 -154t-37 -187.5t37 -187.5t99.5 -154t149.5 -103t182 -38.5t182 38.5t149.5 103t99.5 154t37 187.5t-37 187.5t-99.5 154t-149.5 103t-182 38.5zM517 247l-62 -64l-2 1l-1 -1l-62 64l1 1l-147 152l62 64l147 -152l265 273
l62 -64l-264 -273z" />
    <glyph glyph-name="uniE65F" unicode="&#xe65f;" 
d="M787 679q-76 75 -176.5 102t-201 0t-175.5 -102t-101.5 -175.5t0 -201t101.5 -175.5q56 -56 129 -85.5t147 -29.5t147 29.5t130 85.5q75 75 101.5 175.5t0 201t-101.5 175.5zM649 196l-138 139l-139 -139l-68 68l138 139l-138 139l68 68l139 -139l138 139l68 -68
l-138 -139l139 -139zM649 196z" />
    <glyph glyph-name="uniE660" unicode="&#xe660;" 
d="M953 97l-394 628q-16 25 -47 25t-47 -25l-394 -628q-16 -27 1 -54q16 -25 46 -25h788q30 0 46 25q17 27 1 54zM562 118q0 -9 -5 -15.5t-13 -6.5h-62q-8 0 -13.5 6.5t-5.5 15.5v38q0 9 5.5 15.5t13.5 6.5h62q8 0 13 -6.5t5 -15.5v-38zM557 241q-5 -4 -13 -4h-62
q-8 0 -13 4.5t-5 10.5l-1 106v166q0 6 5.5 10.5t12.5 4.5h63q8 0 13 -4.5t5 -10.5v-165v-107q0 -7 -5 -11z" />
    <glyph glyph-name="uniE661" unicode="&#xe661;" horiz-adv-x="1000" 
d="M607 39l312 313q18 18 18 44t-18 44l-312 313q-19 18 -44.5 18t-44 -18.5t-18.5 -44t18 -44.5l206 -206h-599q-26 0 -44.5 -18t-18.5 -44t18.5 -44.5t44.5 -18.5h599l-206 -205q-18 -19 -18 -44.5t18.5 -44t44 -18.5t44.5 18z" />
    <glyph glyph-name="uniE662" unicode="&#xe662;" horiz-adv-x="1000" 
d="M857 479l-313 312q-18 18 -44 18t-44 -18l-313 -312q-18 -19 -18 -44.5t18.5 -44t44 -18.5t44.5 18l206 206v-599q0 -26 18 -44.5t44 -18.5t44.5 18.5t18.5 44.5v599l205 -206q19 -18 44.5 -18t44 18.5t18.5 44t-18 44.5z" />
    <glyph glyph-name="uniE663" unicode="&#xe663;" horiz-adv-x="1000" 
d="M167 289l313 -312q18 -18 44 -18t44 18l313 312q18 19 18 44.5t-18.5 44t-44 18.5t-44.5 -18l-206 -206v599q0 26 -18 44.5t-44 18.5t-44.5 -18.5t-18.5 -44.5v-599l-205 206q-19 18 -44.5 18t-44 -18.5t-18.5 -44t18 -44.5z" />
    <glyph glyph-name="uniE664" unicode="&#xe664;" 
d="M60 587h904q24 0 41 19t17 46t-17 45.5t-41 18.5h-904q-24 0 -41 -18.5t-17 -45.5t17 -46t41 -19zM964 449h-904q-24 0 -41 -19t-17 -46t17 -46t41 -19h904q24 0 41 19t17 46t-17 46t-41 19zM964 181h-904q-24 0 -41 -19t-17 -46t17 -45.5t41 -18.5h904q24 0 41 18.5
t17 45.5t-17 46t-41 19z" />
    <glyph glyph-name="uniE665" unicode="&#xe665;" 
d="M747 815q-21 22 -51.5 22t-51.5 -22l-367 -378q-22 -22 -22 -53t22 -53l367 -378q21 -22 51.5 -22t52 22t21.5 53t-22 53l-315 325l315 325q22 22 22 53t-22 53z" />
    <glyph glyph-name="uniE666" unicode="&#xe666;" 
d="M943 149q22 21 22 51.5t-22 51.5l-378 367q-22 22 -53 22t-53 -22l-378 -367q-22 -21 -22 -51.5t22 -52t53 -21.5t53 22l325 315l325 -315q22 -22 53 -22t53 22z" />
    <glyph glyph-name="uniE667" unicode="&#xe667;" 
d="M81 619q-22 -21 -22 -51.5t22 -51.5l378 -367q22 -22 53 -22t53 22l378 367q22 21 22 51.5t-22 52t-53 21.5t-53 -22l-325 -315l-325 315q-22 22 -53 22t-53 -22v0z" />
    <glyph glyph-name="uniE668" unicode="&#xe668;" 
d="M277 -47q21 -22 51.5 -22t51.5 22l367 378q22 22 22 53t-22 53l-367 378q-21 22 -51.5 22t-52 -22t-21.5 -53t22 -53l315 -325l-315 -325q-22 -22 -22 -53t22 -53v0z" />
    <glyph glyph-name="uniE669" unicode="&#xe669;" 
d="M882 896h-740l-114 -114v-910h683l57 57v739l-56 57h-570l57 57l626 1l57 -57v-739h114v796zM198 146q73 78 125 95q11 4 19.5 25t3.5 37q0 1 -1 4q-3 5 -4 6q-18 19 -27 43q-1 0 -1 1t-0.5 2t-0.5 2v1l-1 2q-2 5 -3 9l-1 4l-1 10q0 1 -0.5 4t-0.5 4q0 40 28.5 68.5
t68.5 28.5q41 0 69 -28.5t28 -68.5v-5q0 -2 -1 -3h1q0 -4 -1 -9q-1 -1 -1 -2v-3q-1 -2 -3 -9v-2q-1 -1 -1 -1.5t-2 -3.5v0v-1q-9 -23 -27 -43q-2 -2 -4 -6l-2 -4q-5 -16 3.5 -37t19.5 -25q54 -18 125 -95v-43h-408v43z" />
    <glyph glyph-name="uniE66A" unicode="&#xe66a;" 
d="M920 62h-816q-17 0 -29.5 12t-12.5 29v432h900v-432q0 -17 -12.5 -29t-29.5 -12zM62 616v81q0 16 12.5 28t29.5 12h211l84 -81h521q17 0 29.5 -12t12.5 -28v-41h-900v41z" />
    <glyph glyph-name="uniE66B" unicode="&#xe66b;" 
d="M65 458l425 322v-182q10 1 27 0.5t66 -10t93.5 -28.5t99 -63.5t93.5 -107t65.5 -166.5t26.5 -234q-17 36 -39 75t-68 98t-96 100t-122 64t-146 6l3 -191z" />
    <glyph glyph-name="uniE66C" unicode="&#xe66c;" 
d="M532 141q3 146 3 191q-74 17 -145.5 -6t-121.5 -64t-96 -100.5t-68 -98.5t-39 -74q-1 130 25.5 234t65.5 166.5t93.5 107t99 63.5t93.5 28.5t66.5 10t27.5 -0.5v182l424 -322z" />
    <glyph glyph-name="uniE66D" unicode="&#xe66d;" 
d="M363 110l-124 122l-77 -207zM759 499l-128 131l-369 -364l133 -138zM864 599q10 14 7 28.5t-12 26.5l-8 11q-21 28 -60 56q-17 13 -34 13t-26 -6l-9 -7l-65 -65l133 -133q56 56 74 76zM97 -27h742v-65h-742v65z" />
    <glyph glyph-name="uniE66E" unicode="&#xe66e;" 
d="M789 839v-52q11 -17 11 -37q0 -29 -21 -50t-50 -21t-50 21t-21 50q0 20 11 37v52h-96v-52q11 -17 11 -37q0 -29 -21 -50t-50.5 -21t-50 21t-20.5 50q0 20 10 37v52h-95v-52q10 -17 10 -37q0 -29 -20.5 -50t-50 -21t-50.5 21t-21 50q0 20 11 37v52h-66v-702l17 -17
l209 -209h458v928h-65zM796 -32h-324q-24 0 -37.5 20.5t-15.5 50.5t-0.5 59.5t5.5 50.5l3 21q-4 -1 -11 -2.5t-27.5 -4.5t-39 -4.5t-41.5 -0.5t-39.5 6.5t-28.5 17.5t-12 31v412h568v-657zM746 444h-455v-70h455v70zM746 563h-455v-70h455v70zM746 326h-455v-71h455v71z
M729.5 709q14.5 0 24.5 10t10 25v99q0 14 -10 24.5t-25 10.5t-25 -10.5t-10 -24.5v-99q0 -15 10.5 -25t25 -10zM296.5 709q14.5 0 25 10t10.5 25v99q0 14 -10.5 24.5t-25 10.5t-25 -10.5t-10.5 -24.5v-99q0 -15 10.5 -25t25 -10zM512.5 709q14.5 0 25 10t10.5 25v99
q0 14 -10 24.5t-25 10.5t-25.5 -10.5t-10.5 -24.5v-99q0 -15 10.5 -25t25 -10z" />
    <glyph glyph-name="uniE66F" unicode="&#xe66f;" 
d="M929 544l-418 289l-418 -289l418 -289zM511 190l-369 246l-49 -51l418 -289l418 289l-49 52zM511 31l-369 246l-49 -51l418 -290l418 290l-49 52zM511 31z" />
    <glyph glyph-name="uniE670" unicode="&#xe670;" 
d="M408 611h207q22 0 37 16.5t15 39.5v113h-104v56h-103v-56h-104v-113q0 -23 15 -39.5t37 -16.5zM460 723h103v-56h-103v56zM304 105h415v506h-52q0 -23 -15 -39.5t-37 -16.5h-207q-22 0 -37 16.5t-15 39.5h-52v-506zM356 499h311v-57h-311v57zM356 386h207v-56h-207v56z
M356 274h259v-57h-259v57zM823 780h-104v-113h52v-618h-519v618h52v113h-104q-22 0 -37 -16.5t-15 -40.5v-730q0 -24 15 -40.5t37 -16.5h623q21 0 36.5 16.5t15.5 40.5v730q0 24 -15.5 40.5t-36.5 16.5zM823 780z" />
    <glyph glyph-name="uniE671" unicode="&#xe671;" 
d="M873.5 591q-85.5 86 -206.5 86h-308v58q0 14 -8 19t-20 -3l-142 -91q-11 -8 -11 -18.5t12 -18.5l140 -87q12 -7 20.5 -2.5t8.5 18.5v59h308q93 0 159.5 -66.5t66.5 -160.5q0 -31 -8 -61q-4 -13 3 -25t20 -15q4 -2 9 -2q11 0 19.5 7t11.5 18q11 38 11 78q0 121 -85.5 207z
M819 145l-141 87q-12 7 -20.5 2.5t-8.5 -18.5v-59h-331q-94 0 -160.5 66.5t-66.5 160.5q0 67 36 123q8 11 5 24.5t-14.5 21t-25 4.5t-20.5 -14q-47 -73 -47 -159q0 -121 85.5 -207t207.5 -86h331v-58q0 -14 8.5 -19t20.5 3l141 91q12 8 12 18.5t-12 18.5z" />
    <glyph glyph-name="uniE672" unicode="&#xe672;" 
d="M979 759v-621q-2 -3 -8 -3h-367h-5q1 -2 1 -3q3 -15 6 -27q14 -54 16 -64q1 -3 3 -3q42 -3 50 -4q19 -3 49 -8q6 -2 16 -6q7 -4 0 -9q-3 -2 -6 -3q-7 -3 -12 -4q-24 -6 -68 -10q-54 -5 -111 -5q-42 0 -96 1q-66 2 -116 9q-10 2 -36 8q-5 1 -10 4q-6 4 0 8q3 3 6 3
q15 5 21 6q32 7 87 10q3 0 4 4q4 17 23 90v3h-4h-368q-6 0 -8 3v621q4 11 10 14q0 1 9 5h895q9 -4 10 -5q6 -3 9 -14zM82 258h861v482h-861v-482zM512.5 161q7.5 0 13.5 6t6 13.5t-6 13t-13.5 5.5t-13.5 -5.5t-6 -13.5t6 -13.5t13.5 -5.5zM65 778q-9 -4 -9 -5q-6 -3 -10 -14
v19h19zM979 759q-3 11 -9 14q-1 1 -10 5h19v-19z" />
    <glyph glyph-name="uniE673" unicode="&#xe673;" 
d="M37 791v-640h950v640h-950zM949 190h-874v563h874v-563zM616 132l42 -117h-311l41 117h-41l-58 -155h427l-59 155h-41zM929 733h-834v-524h834v524zM908 230h-794v482h794v-482zM512 373l-3 3l204 203l-28 27l-203 -203l-107 107l-28 -27l137 -137z" />
    <glyph glyph-name="uniE674" unicode="&#xe674;" 
d="M668 767v28q0 28 -22 48t-52 20h-175q-29 0 -46.5 -19.5t-17.5 -48.5v-28h-55v-122h423v122h-55zM396 767v28q0 13 15.5 20.5t33.5 7.5h134q19 0 31 -7t15 -14l3 -7v-28h-232zM750 140h-477v-41h477v41zM819 740h-55v-41h41q16 0 35 -13.5t19 -27.5l1 -657
q0 -14 -19.5 -33.5t-33.5 -19.5h-590q-15 0 -34.5 19.5t-19.5 33.5v650q0 15 14 31.5t28 16.5h54v41h-68q-29 0 -48.5 -19.5t-19.5 -48.5v-694q0 -29 20.5 -49.5t50.5 -20.5h618q31 0 59.5 21t28.5 49v694q0 52 -66 66zM273 276v-41h477v41h-477zM273 426v-41h477v41h-477z
M750 576h-477v-41h477v41z" />
    <glyph glyph-name="uniE675" unicode="&#xe675;" 
d="M801 551q-10 -21 -33 -21h-110v-493q0 -8 -5 -13.5t-13 -5.5h-402q-12 0 -17 11q-4 11 2 20l92 109q5 7 14 7h183v365h-110q-23 0 -33 21q-10 22 5 39l183 220q10 12 28 12t28 -12l183 -220q15 -18 5 -39z" />
    <glyph glyph-name="uniE676" unicode="&#xe676;" 
d="M238 750h402q7 0 12.5 -5.5t5.5 -13.5v-493h110q23 0 33 -21.5t-5 -39.5l-183 -219q-10 -13 -28 -13t-28 13l-183 219q-15 18 -5 40q10 21 33 21h110v365h-183q-8 0 -14 7l-92 109q-7 8 -2 20q5 11 17 11z" />
    <glyph glyph-name="uniE677" unicode="&#xe677;" 
d="M863 325v-292q0 -16 -11.5 -27.5t-27.5 -11.5h-234v234h-156v-234h-234q-16 0 -27.5 11.5t-11.5 27.5v292q0 1 1 3v1l350 289l350 -289q1 -1 1 -4zM999 368l-38 -46q-5 -5 -13 -6h-1q-8 0 -13 4l-422 352l-422 -352q-7 -5 -14 -4q-8 1 -13 6l-38 46q-5 6 -4.5 14t6.5 13
l439 365q19 16 46 16t46 -16l149 -124v119q0 8 5.5 13.5t14.5 5.5h117q8 0 13.5 -5.5t5.5 -13.5v-249l134 -111q6 -5 6.5 -13t-4.5 -14z" />
    <glyph glyph-name="uniE678" unicode="&#xe678;" 
d="M511.5 852q-95.5 0 -182 -37t-149 -100t-100 -149.5t-37.5 -182t37.5 -182t100 -149t149 -100t182 -37.5t182 37.5t149.5 100t100 149t37 182t-37 182t-100 149.5t-149.5 100t-182 37zM424 91l-194 252l86 90l108 -137l338 276l42 -42z" />
    <glyph glyph-name="uniE679" unicode="&#xe679;" 
d="M489 777q37 16 76 0q42 -17 348 -147q31 -14 29.5 -33.5t-29.5 -31.5q-324 -136 -344 -144q-43 -17 -80 -1q-92 39 -356 150q-20 8 -20 28t20 29q17 7 177.5 75t178.5 75zM172 598q322 -137 336 -142q20 -8 39 0l336 142q-330 140 -338 143q-6 3 -17 3t-17 -3zM904 475
q-341 -144 -357 -151q-19 -8 -39 0q-14 6 -357 151l-16 -38q332 -140 354 -149q37 -16 80 1l351 148zM904 343q-341 -144 -357 -150q-19 -8 -39 0q-13 5 -357 150l-16 -37q332 -140 354 -149q37 -16 80 1q10 4 97.5 41t170.5 72l83 35zM903 212q-340 -144 -356 -151
q-19 -8 -39 0q-6 2 -95.5 40t-175.5 75l-86 36l-16 -38q332 -140 354 -149q37 -16 80 1q10 4 97.5 41t170.5 72l83 35z" />
    <glyph glyph-name="uniE67A" unicode="&#xe67a;" horiz-adv-x="1280" 
d="M384 532l-101 -109l255 -239l483 498l-88 81l-397 -385zM163 864q-50 0 -85 -35t-35 -85v-720q0 -50 35 -85t85 -35h720q49 0 84.5 35t35.5 85v455l-120 -116v-299q0 -16 -12 -28t-28 -12h-640q-17 0 -28.5 12t-11.5 28v640q0 16 11.5 28t28.5 12h505l107 118z" />
    <glyph glyph-name="uniE67B" unicode="&#xe67b;" 
d="M872 864h-720q-50 0 -85 -35.5t-35 -84.5v-720q0 -50 35.5 -85t84.5 -35h720q50 0 85 35.5t35 84.5v720q0 50 -35.5 85t-84.5 35zM872 24h-720v720h720v-720z" />
    <glyph glyph-name="uniE67C" unicode="&#xe67c;" 
d="M512 -81q-95 0 -181 37t-148 99t-99 148t-37 181t37 181t99 148t148 99t181 37t181 -37t148 -99t99 -148t37 -181t-37 -181t-99 -148t-148 -99t-181 -37zM512 791q-111 0 -204.5 -54.5t-148 -148t-54.5 -204.5t54.5 -204.5t148 -148t204.5 -54.5t204.5 54.5t148 148
t54.5 204.5t-54.5 204.5t-148 148t-204.5 54.5z" />
    <glyph glyph-name="uniE67D" unicode="&#xe67d;" 
d="M358 -126q-115 0 -195 80t-80.5 194t78.5 195q3 4 219 221l220 219q60 59 144.5 59.5t144 -59.5t59.5 -144q0 -85 -60 -144l-441 -441q-38 -35 -88.5 -34t-86.5 37t-37 86.5t34 87.5q3 4 392 391q10 9 23 9t22.5 -9.5t9.5 -22.5t-9 -23q-372 -368 -392 -388
q-16 -18 -15.5 -43t18 -42.5t42.5 -18.5t43 16l440 440q41 41 41 99t-40 99q-41 41 -99.5 41t-99.5 -41q-11 -13 -439 -440q-60 -62 -59.5 -149.5t62 -149t149 -62t149.5 59.5l5 5l381 380q9 10 22.5 10t22.5 -9.5t9 -22.5t-9 -23l-383 -383q-83 -80 -197 -80z" />
    <glyph glyph-name="uniE67E" unicode="&#xe67e;" 
d="M239 521l273 -274l273 274h-546z" />
    <glyph glyph-name="uniE67F" unicode="&#xe67f;" 
d="M904 51l-187 187q71 92 71 208q0 93 -45.5 171.5t-123.5 124t-170.5 45.5t-171 -45.5t-124 -124t-45.5 -171t45.5 -171t124 -124t170.5 -45.5q117 0 209 72l186 -187q13 -12 30.5 -12t30 12.5t12.5 30t-12 29.5zM193 446q0 106 75 181t180.5 75t180 -75t74.5 -180.5
t-74.5 -180.5t-180 -75t-180.5 75t-75 180zM302 550v-212h-43v163q-8 -7 -22 -12.5t-26 -6.5v37q37 11 64 31h27zM366 438q0 54 20 82.5t57 28.5q72 0 72 -106q0 -52 -19.5 -80.5t-56.5 -28.5q-73 0 -73 104zM410 439q0 -71 30 -71q31 0 31 74t-30 74q-31 0 -31 -77z
M535 438q0 54 20 82.5t58 28.5q71 0 71 -106q0 -52 -19.5 -80.5t-55.5 -28.5q-74 0 -74 104zM579 439q0 -71 31 -71q30 0 30 74t-29 74q-32 0 -32 -77z" />
    <glyph glyph-name="uniE680" unicode="&#xe680;" 
d="M904 51l-187 187q71 92 71 208q0 93 -45.5 171.5t-123.5 124t-170.5 45.5t-171 -45.5t-124 -124t-45.5 -171t45.5 -171t124 -124t170.5 -45.5q117 0 209 72l186 -187q13 -12 30.5 -12t30 12.5t12.5 30t-12 29.5zM193 446q0 106 75 181t180.5 75t180 -75t74.5 -180.5
t-74.5 -180.5t-180 -75t-180.5 75t-75 180zM249 480h392v-73h-392v73z" />
    <glyph glyph-name="uniE681" unicode="&#xe681;" 
d="M904 51l-187 187q71 92 71 208q0 93 -45.5 171.5t-123.5 124t-170.5 45.5t-171 -45.5t-124 -124t-45.5 -171t45.5 -171t124 -124t170.5 -45.5q117 0 209 72l186 -187q13 -12 30.5 -12t30 12.5t12.5 30t-12 29.5zM193 446q0 106 75 181t180.5 75t180 -75t74.5 -180.5
t-74.5 -180.5t-180 -75t-180.5 75t-75 180zM249 480h392v-73h-392v73zM405 602h82v-316h-82v316z" />
    <glyph glyph-name="uniE682" unicode="&#xe682;" 
d="M150 432h636v-106h-636v106zM150 817h113v-385h-113v385zM758 432h116v-474h-116v474z" />
    <glyph glyph-name="uniE683" unicode="&#xe683;" 
d="M464 22v636h106v-636h-106zM79 22v113h385v-113h-385zM464 630v116h474v-116h-474z" />
    <glyph glyph-name="uniE684" unicode="&#xe684;" 
d="M239 247l273 274l273 -274h-546z" />
    <glyph glyph-name="uniE685" unicode="&#xe685;" 
d="M375 657l274 -273l-274 -273v546z" />
    <glyph glyph-name="uniE686" unicode="&#xe686;" 
d="M375 657l274 -273l-274 -273v546z" />
    <glyph glyph-name="uniE687" unicode="&#xe687;" 
d="M235.5 339q29.5 -11 58.5 2t40 43q21 55 70 88.5t108 33.5t108 -33.5t70 -88.5q8 -23 28 -36.5t43 -13.5q14 0 27 5q30 11 43 40t2 59q-37 98 -124 159q-88 63 -197 63t-197 -63q-87 -60 -124 -159q-11 -30 2 -59t42.5 -40zM227 424q24 65 75 113.5t117 69.5
q15 5 29 -2.5t19 -22.5t-2 -29t-23 -19q-49 -16 -87 -52t-56 -85q-10 -25 -36 -25q-7 0 -14 3q-15 6 -21.5 20.5t-0.5 28.5zM545 332q3 -7 3 -15q0 -15 -10.5 -26t-25.5 -11t-25.5 11t-10.5 26v144q0 5 5 6.5t7 -3.5zM892 838h-760q-30 0 -52 -22t-22 -53v-758q0 -31 22 -53
t52 -22h760q30 0 52 22t22 53v758q0 31 -22 53t-52 22zM444.5 14q-17.5 0 -30 12.5t-12.5 30t12.5 30t30 12.5t30 -12.5t12.5 -30t-12.5 -30t-30 -12.5zM579.5 14q-17.5 0 -30 12.5t-12.5 30t12.5 30t30 12.5t30 -12.5t12.5 -30t-12.5 -30t-30 -12.5zM890 182h-756v579h756
v-579z" />
    <glyph glyph-name="uniE688" unicode="&#xe688;" horiz-adv-x="1025" 
d="M1015 411l-171 213q-13 16 -33 16q-8 0 -14 -2q-13 -5 -21 -16t-8 -25v-128h-341q-36 0 -61 -25t-25 -60t25 -60t61 -25h341v-128q0 -14 8 -25t21 -16q6 -2 14 -2q20 0 33 16l171 213q9 12 9 27t-9 27zM597 43h-341h-1q-35 0 -59.5 25t-24.5 60v512v0v1q0 35 25 59.5
t60 24.5h341q36 0 61 25t25 60.5t-25 60.5t-61 25h-426q-71 0 -121 -50t-50 -121v-682q0 -71 50 -121t121 -50h426q36 0 61 25t25 60.5t-25 60.5t-61 25z" />
    <glyph glyph-name="uniE689" unicode="&#xe689;" horiz-adv-x="1280" 
d="M640 891q-103 0 -197 -40t-162 -108t-108 -162t-40 -197t40 -197t108 -162t162 -108t197 -40t197 40t162 108t108 162t40 197t-40 197t-108 162t-162 108t-197 40zM640 -21q-110 0 -203.5 54t-147.5 147.5t-54 203.5t54 203.5t147.5 147.5t203.5 54t203.5 -54
t147.5 -147.5t54 -203.5t-54 -203.5t-147.5 -147.5t-203.5 -54zM803 541l-220 -205l-114 107q-4 1 -11.5 2t-24.5 -3.5t-29 -16.5q-9 -9 -14 -22.5t-6 -22.5v-10l199 -199l304 293l-19 60z" />
  </font>
</defs>
</svg>
